<svg width="197" height="42" viewBox="0 0 197 42" fill="none" xmlns="http://www.w3.org/2000/svg">
<path d="M51.6923 9.98672C51.6411 9.42351 51.4133 8.98575 51.0088 8.67342C50.6094 8.35598 50.0385 8.19726 49.2961 8.19726C48.8046 8.19726 48.395 8.26126 48.0673 8.38926C47.7396 8.51726 47.4938 8.6939 47.33 8.91919C47.1662 9.13935 47.0817 9.39279 47.0766 9.67952C47.0663 9.91504 47.1124 10.1224 47.2148 10.3016C47.3223 10.4808 47.4759 10.6395 47.6756 10.7778C47.8804 10.9109 48.1262 11.0287 48.4129 11.1311C48.6996 11.2335 49.0222 11.3231 49.3806 11.3999L50.7323 11.7071C51.5105 11.876 52.1966 12.1013 52.7906 12.3829C53.3896 12.6645 53.8914 12.9999 54.2959 13.389C54.7055 13.7781 55.0152 14.2261 55.2251 14.733C55.4351 15.2399 55.5426 15.8082 55.5477 16.438C55.5426 17.4313 55.2917 18.2838 54.7951 18.9955C54.2984 19.7072 53.5842 20.2525 52.6523 20.6314C51.7256 21.0102 50.6068 21.1997 49.2961 21.1997C47.9802 21.1997 46.8333 21.0026 45.8554 20.6083C44.8775 20.2141 44.1172 19.615 43.5744 18.8112C43.0317 18.0073 42.7527 16.991 42.7373 15.7622H46.3777C46.4084 16.2691 46.5441 16.6915 46.7847 17.0294C47.0254 17.3673 47.3556 17.6233 47.7754 17.7974C48.2004 17.9715 48.6919 18.0585 49.25 18.0585C49.762 18.0585 50.1972 17.9894 50.5556 17.8512C50.9192 17.7129 51.1982 17.5209 51.3928 17.2751C51.5873 17.0294 51.6872 16.7478 51.6923 16.4303C51.6872 16.1334 51.595 15.8799 51.4158 15.67C51.2366 15.455 50.9601 15.2706 50.5864 15.117C50.2177 14.9583 49.7467 14.8124 49.1732 14.6793L47.5297 14.2953C46.1677 13.9829 45.0951 13.4786 44.3117 12.7823C43.5283 12.0808 43.1392 11.1336 43.1443 9.94064C43.1392 8.96783 43.4003 8.11534 43.9277 7.38316C44.4551 6.65099 45.1847 6.08011 46.1165 5.6705C47.0484 5.26089 48.1108 5.05609 49.3038 5.05609C50.5224 5.05609 51.5797 5.26345 52.4757 5.67818C53.3768 6.08779 54.0757 6.66379 54.5723 7.40621C55.069 8.14862 55.3224 9.00879 55.3327 9.98672H51.6923ZM57.4677 21V5.27113H64.0266C65.2042 5.27113 66.1898 5.43754 66.9834 5.77034C67.7821 6.10315 68.3812 6.56907 68.7805 7.16812C69.185 7.76717 69.3873 8.46094 69.3873 9.24943C69.3873 9.84848 69.2618 10.3835 69.0109 10.8546C68.7601 11.3205 68.4145 11.7071 67.9741 12.0143C67.5338 12.3215 67.0244 12.5365 66.4458 12.6594V12.813C67.0807 12.8437 67.6669 13.0152 68.2045 13.3276C68.7473 13.6399 69.1825 14.0751 69.5102 14.6332C69.8378 15.1862 70.0017 15.8415 70.0017 16.5993C70.0017 17.4441 69.7866 18.1993 69.3566 18.8649C68.9265 19.5254 68.3044 20.0477 67.4903 20.4317C66.6762 20.8106 65.688 21 64.5258 21H57.4677ZM61.2694 17.9356H63.6195C64.4438 17.9356 65.0506 17.7795 65.4397 17.4671C65.8339 17.1548 66.0311 16.7196 66.0311 16.1615C66.0311 15.757 65.9363 15.4089 65.7469 15.117C65.5575 14.8201 65.2887 14.5922 64.9405 14.4335C64.5923 14.2697 64.175 14.1877 63.6886 14.1877H61.2694V17.9356ZM61.2694 11.7378H63.3737C63.7885 11.7378 64.1571 11.6687 64.4797 11.5304C64.8022 11.3922 65.0531 11.1925 65.2323 10.9314C65.4167 10.6703 65.5088 10.3554 65.5088 9.98672C65.5088 9.45935 65.3219 9.04463 64.9482 8.74254C64.5744 8.44046 64.0701 8.28942 63.4352 8.28942H61.2694V11.7378ZM71.8295 21V5.27113H78.3269C79.5045 5.27113 80.5209 5.50154 81.3759 5.96234C82.2361 6.41803 82.8991 7.05548 83.3651 7.87469C83.831 8.68878 84.064 9.636 84.064 10.7163C84.064 11.8018 83.8259 12.7516 83.3497 13.5657C82.8787 14.3746 82.2054 15.0018 81.3298 15.4473C80.4543 15.8927 79.4149 16.1154 78.2117 16.1154H74.2027V13.1202H77.5051C78.0786 13.1202 78.5573 13.0204 78.9413 12.8207C79.3305 12.621 79.6249 12.342 79.8245 11.9836C80.0242 11.62 80.1241 11.1976 80.1241 10.7163C80.1241 10.2299 80.0242 9.81008 79.8245 9.45679C79.6249 9.09839 79.3305 8.82191 78.9413 8.62734C78.5522 8.43278 78.0735 8.3355 77.5051 8.3355H75.6312V21H71.8295ZM99.0863 9.98672C99.0351 9.42351 98.8072 8.98575 98.4027 8.67342C98.0034 8.35598 97.4325 8.19726 96.6901 8.19726C96.1985 8.19726 95.7889 8.26126 95.4612 8.38926C95.1336 8.51726 94.8878 8.6939 94.724 8.91919C94.5601 9.13935 94.4756 9.39279 94.4705 9.67952C94.4603 9.91504 94.5064 10.1224 94.6088 10.3016C94.7163 10.4808 94.8699 10.6395 95.0696 10.7778C95.2744 10.9109 95.5201 11.0287 95.8069 11.1311C96.0936 11.2335 96.4161 11.3231 96.7745 11.3999L98.1262 11.7071C98.9045 11.876 99.5906 12.1013 100.185 12.3829C100.784 12.6645 101.285 12.9999 101.69 13.389C102.099 13.7781 102.409 14.2261 102.619 14.733C102.829 15.2399 102.937 15.8082 102.942 16.438C102.937 17.4313 102.686 18.2838 102.189 18.9955C101.692 19.7072 100.978 20.2525 100.046 20.6314C99.1195 21.0102 98.0008 21.1997 96.6901 21.1997C95.3742 21.1997 94.2273 21.0026 93.2494 20.6083C92.2714 20.2141 91.5111 19.615 90.9684 18.8112C90.4257 18.0073 90.1466 16.991 90.1312 15.7622H93.7716C93.8023 16.2691 93.938 16.6915 94.1787 17.0294C94.4193 17.3673 94.7496 17.6233 95.1694 17.7974C95.5944 17.9715 96.0859 18.0585 96.644 18.0585C97.156 18.0585 97.5912 17.9894 97.9496 17.8512C98.3131 17.7129 98.5922 17.5209 98.7867 17.2751C98.9813 17.0294 99.0811 16.7478 99.0863 16.4303C99.0811 16.1334 98.989 15.8799 98.8098 15.67C98.6306 15.455 98.3541 15.2706 97.9803 15.117C97.6117 14.9583 97.1406 14.8124 96.5672 14.6793L94.9236 14.2953C93.5617 13.9829 92.489 13.4786 91.7057 12.7823C90.9223 12.0808 90.5332 11.1336 90.5383 9.94064C90.5332 8.96783 90.7943 8.11534 91.3217 7.38316C91.849 6.65099 92.5786 6.08011 93.5105 5.6705C94.4424 5.26089 95.5048 5.05609 96.6977 5.05609C97.9163 5.05609 98.9736 5.26345 99.8696 5.67818C100.771 6.08779 101.47 6.66379 101.966 7.40621C102.463 8.14862 102.716 9.00879 102.727 9.98672H99.0863ZM104.862 21V5.27113H115.829V8.35854H108.663V11.5842H115.268V14.6793H108.663V17.9126H115.829V21H104.862ZM121.612 21H117.526L122.833 5.27113H127.894L133.201 21H129.115L125.421 9.23407H125.298L121.612 21ZM121.067 14.8098H129.607V17.6976H121.067V14.8098ZM134.895 21V5.27113H145.632V8.35854H138.696V11.5842H144.948V14.6793H138.696V21H134.895ZM162.391 13.1356C162.391 14.8662 162.059 16.3331 161.393 17.5363C160.727 18.7395 159.826 19.6534 158.69 20.2781C157.558 20.9027 156.288 21.215 154.88 21.215C153.467 21.215 152.195 20.9002 151.063 20.2704C149.932 19.6406 149.033 18.7267 148.368 17.5286C147.707 16.3254 147.377 14.861 147.377 13.1356C147.377 11.405 147.707 9.93808 148.368 8.73486C149.033 7.53165 149.932 6.61771 151.063 5.99306C152.195 5.36842 153.467 5.05609 154.88 5.05609C156.288 5.05609 157.558 5.36842 158.69 5.99306C159.826 6.61771 160.727 7.53165 161.393 8.73486C162.059 9.93808 162.391 11.405 162.391 13.1356ZM158.505 13.1356C158.505 12.1116 158.359 11.2463 158.068 10.5397C157.781 9.83312 157.366 9.29807 156.823 8.93455C156.286 8.57102 155.638 8.38926 154.88 8.38926C154.128 8.38926 153.48 8.57102 152.937 8.93455C152.395 9.29807 151.977 9.83312 151.685 10.5397C151.399 11.2463 151.255 12.1116 151.255 13.1356C151.255 14.1596 151.399 15.0249 151.685 15.7314C151.977 16.438 152.395 16.9731 152.937 17.3366C153.48 17.7001 154.128 17.8819 154.88 17.8819C155.638 17.8819 156.286 17.7001 156.823 17.3366C157.366 16.9731 157.781 16.438 158.068 15.7314C158.359 15.0249 158.505 14.1596 158.505 13.1356ZM179.457 13.1356C179.457 14.8662 179.124 16.3331 178.458 17.5363C177.793 18.7395 176.892 19.6534 175.755 20.2781C174.623 20.9027 173.354 21.215 171.946 21.215C170.532 21.215 169.26 20.9002 168.129 20.2704C166.997 19.6406 166.098 18.7267 165.433 17.5286C164.772 16.3254 164.442 14.861 164.442 13.1356C164.442 11.405 164.772 9.93808 165.433 8.73486C166.098 7.53165 166.997 6.61771 168.129 5.99306C169.26 5.36842 170.532 5.05609 171.946 5.05609C173.354 5.05609 174.623 5.36842 175.755 5.99306C176.892 6.61771 177.793 7.53165 178.458 8.73486C179.124 9.93808 179.457 11.405 179.457 13.1356ZM175.571 13.1356C175.571 12.1116 175.425 11.2463 175.133 10.5397C174.846 9.83312 174.431 9.29807 173.889 8.93455C173.351 8.57102 172.703 8.38926 171.946 8.38926C171.193 8.38926 170.545 8.57102 170.002 8.93455C169.46 9.29807 169.042 9.83312 168.751 10.5397C168.464 11.2463 168.321 12.1116 168.321 13.1356C168.321 14.1596 168.464 15.0249 168.751 15.7314C169.042 16.438 169.46 16.9731 170.002 17.3366C170.545 17.7001 171.193 17.8819 171.946 17.8819C172.703 17.8819 173.351 17.7001 173.889 17.3366C174.431 16.9731 174.846 16.438 175.133 15.7314C175.425 15.0249 175.571 14.1596 175.571 13.1356ZM187.49 21H181.676V5.27113H187.482C189.085 5.27113 190.465 5.58602 191.622 6.21579C192.784 6.84044 193.68 7.74157 194.31 8.91919C194.94 10.0917 195.255 11.4946 195.255 13.1279C195.255 14.7663 194.94 16.1743 194.31 17.3519C193.685 18.5296 192.792 19.4333 191.63 20.063C190.467 20.6877 189.088 21 187.49 21ZM185.478 17.759H187.344C188.225 17.759 188.97 17.6105 189.579 17.3135C190.193 17.0115 190.657 16.5225 190.969 15.8466C191.287 15.1657 191.445 14.2594 191.445 13.1279C191.445 11.9964 191.287 11.0952 190.969 10.4245C190.652 9.74864 190.183 9.26223 189.564 8.96527C188.949 8.66318 188.192 8.51214 187.29 8.51214H185.478V17.759Z" fill="black"/>
<path d="M42.9844 39V30.8706H47.8906V31.7439H43.9688V34.4907H47.6366V35.364H43.9688V38.1267H47.9541V39H42.9844ZM50.1413 30.8706L52.2371 34.2526H52.3006L54.3965 30.8706H55.5555L52.9992 34.9353L55.5555 39H54.3965L52.3006 35.6816H52.2371L50.1413 39H48.9822L51.602 34.9353L48.9822 30.8706H50.1413ZM63.2473 33.4111H62.2629C62.2046 33.1279 62.1028 32.8792 61.9572 32.6648C61.8143 32.4505 61.6397 32.2705 61.4333 32.125C61.2295 31.9768 61.0032 31.8656 60.7545 31.7915C60.5057 31.7174 60.2464 31.6804 59.9765 31.6804C59.4843 31.6804 59.0384 31.8048 58.6388 32.0535C58.2418 32.3023 57.9256 32.6688 57.6901 33.1531C57.4572 33.6373 57.3408 34.2314 57.3408 34.9353C57.3408 35.6392 57.4572 36.2333 57.6901 36.7176C57.9256 37.2019 58.2418 37.5684 58.6388 37.8171C59.0384 38.0659 59.4843 38.1902 59.9765 38.1902C60.2464 38.1902 60.5057 38.1532 60.7545 38.0791C61.0032 38.005 61.2295 37.8952 61.4333 37.7496C61.6397 37.6014 61.8143 37.4202 61.9572 37.2058C62.1028 36.9888 62.2046 36.7401 62.2629 36.4596H63.2473C63.1732 36.875 63.0382 37.2468 62.8424 37.575C62.6466 37.9031 62.4031 38.1823 62.112 38.4125C61.8209 38.6401 61.4941 38.8134 61.1316 38.9325C60.7717 39.0516 60.3867 39.1111 59.9765 39.1111C59.2832 39.1111 58.6666 38.9418 58.1267 38.6031C57.5869 38.2643 57.1622 37.7827 56.8526 37.1582C56.5429 36.5337 56.3881 35.7927 56.3881 34.9353C56.3881 34.0779 56.5429 33.337 56.8526 32.7124C57.1622 32.0879 57.5869 31.6063 58.1267 31.2676C58.6666 30.9289 59.2832 30.7595 59.9765 30.7595C60.3867 30.7595 60.7717 30.819 61.1316 30.9381C61.4941 31.0572 61.8209 31.2319 62.112 31.4621C62.4031 31.6897 62.6466 31.9675 62.8424 32.2957C63.0382 32.6212 63.1732 32.993 63.2473 33.4111ZM64.838 39V30.8706H69.7442V31.7439H65.8224V34.4907H69.4902V35.364H65.8224V38.1267H69.8077V39H64.838ZM71.5185 39V30.8706H72.503V38.1267H76.2818V39H71.5185ZM77.8061 39V30.8706H78.7905V38.1267H82.5694V39H77.8061ZM84.0936 39V30.8706H88.9998V31.7439H85.0781V34.4907H88.7458V35.364H85.0781V38.1267H89.0634V39H84.0936ZM97.2205 30.8706V39H96.2678L91.838 32.6172H91.7586V39H90.7742V30.8706H91.7268L96.1726 37.2693H96.252V30.8706H97.2205ZM105.732 33.4111H104.748C104.689 33.1279 104.587 32.8792 104.442 32.6648C104.299 32.4505 104.124 32.2705 103.918 32.125C103.714 31.9768 103.488 31.8656 103.239 31.7915C102.99 31.7174 102.731 31.6804 102.461 31.6804C101.969 31.6804 101.523 31.8048 101.123 32.0535C100.726 32.3023 100.41 32.6688 100.175 33.1531C99.9419 33.6373 99.8254 34.2314 99.8254 34.9353C99.8254 35.6392 99.9419 36.2333 100.175 36.7176C100.41 37.2019 100.726 37.5684 101.123 37.8171C101.523 38.0659 101.969 38.1902 102.461 38.1902C102.731 38.1902 102.99 38.1532 103.239 38.0791C103.488 38.005 103.714 37.8952 103.918 37.7496C104.124 37.6014 104.299 37.4202 104.442 37.2058C104.587 36.9888 104.689 36.7401 104.748 36.4596H105.732C105.658 36.875 105.523 37.2468 105.327 37.575C105.131 37.9031 104.888 38.1823 104.597 38.4125C104.306 38.6401 103.979 38.8134 103.616 38.9325C103.256 39.0516 102.871 39.1111 102.461 39.1111C101.768 39.1111 101.151 38.9418 100.611 38.6031C100.072 38.2643 99.6468 37.7827 99.3372 37.1582C99.0276 36.5337 98.8728 35.7927 98.8728 34.9353C98.8728 34.0779 99.0276 33.337 99.3372 32.7124C99.6468 32.0879 100.072 31.6063 100.611 31.2676C101.151 30.9289 101.768 30.7595 102.461 30.7595C102.871 30.7595 103.256 30.819 103.616 30.9381C103.979 31.0572 104.306 31.2319 104.597 31.4621C104.888 31.6897 105.131 31.9675 105.327 32.2957C105.523 32.6212 105.658 32.993 105.732 33.4111ZM107.323 39V30.8706H112.229V31.7439H108.307V34.4907H111.975V35.364H108.307V38.1267H112.292V39H107.323ZM123.689 33.4111H122.704C122.646 33.1279 122.544 32.8792 122.398 32.6648C122.256 32.4505 122.081 32.2705 121.875 32.125C121.671 31.9768 121.445 31.8656 121.196 31.7915C120.947 31.7174 120.688 31.6804 120.418 31.6804C119.926 31.6804 119.48 31.8048 119.08 32.0535C118.683 32.3023 118.367 32.6688 118.131 33.1531C117.899 33.6373 117.782 34.2314 117.782 34.9353C117.782 35.6392 117.899 36.2333 118.131 36.7176C118.367 37.2019 118.683 37.5684 119.08 37.8171C119.48 38.0659 119.926 38.1902 120.418 38.1902C120.688 38.1902 120.947 38.1532 121.196 38.0791C121.445 38.005 121.671 37.8952 121.875 37.7496C122.081 37.6014 122.256 37.4202 122.398 37.2058C122.544 36.9888 122.646 36.7401 122.704 36.4596H123.689C123.614 36.875 123.479 37.2468 123.284 37.575C123.088 37.9031 122.844 38.1823 122.553 38.4125C122.262 38.6401 121.935 38.8134 121.573 38.9325C121.213 39.0516 120.828 39.1111 120.418 39.1111C119.724 39.1111 119.108 38.9418 118.568 38.6031C118.028 38.2643 117.603 37.7827 117.294 37.1582C116.984 36.5337 116.829 35.7927 116.829 34.9353C116.829 34.0779 116.984 33.337 117.294 32.7124C117.603 32.0879 118.028 31.6063 118.568 31.2676C119.108 30.9289 119.724 30.7595 120.418 30.7595C120.828 30.7595 121.213 30.819 121.573 30.9381C121.935 31.0572 122.262 31.2319 122.553 31.4621C122.844 31.6897 123.088 31.9675 123.284 32.2957C123.479 32.6212 123.614 32.993 123.689 33.4111ZM125.279 39V30.8706H126.264V34.4907H130.598V30.8706H131.583V39H130.598V35.364H126.264V39H125.279ZM140.413 34.9353C140.413 35.7927 140.258 36.5337 139.948 37.1582C139.639 37.7827 139.214 38.2643 138.674 38.6031C138.134 38.9418 137.518 39.1111 136.824 39.1111C136.131 39.1111 135.514 38.9418 134.975 38.6031C134.435 38.2643 134.01 37.7827 133.7 37.1582C133.391 36.5337 133.236 35.7927 133.236 34.9353C133.236 34.0779 133.391 33.337 133.7 32.7124C134.01 32.0879 134.435 31.6063 134.975 31.2676C135.514 30.9289 136.131 30.7595 136.824 30.7595C137.518 30.7595 138.134 30.9289 138.674 31.2676C139.214 31.6063 139.639 32.0879 139.948 32.7124C140.258 33.337 140.413 34.0779 140.413 34.9353ZM139.46 34.9353C139.46 34.2314 139.342 33.6373 139.107 33.1531C138.874 32.6688 138.558 32.3023 138.158 32.0535C137.761 31.8048 137.317 31.6804 136.824 31.6804C136.332 31.6804 135.886 31.8048 135.487 32.0535C135.09 32.3023 134.773 32.6688 134.538 33.1531C134.305 33.6373 134.189 34.2314 134.189 34.9353C134.189 35.6392 134.305 36.2333 134.538 36.7176C134.773 37.2019 135.09 37.5684 135.487 37.8171C135.886 38.0659 136.332 38.1902 136.824 38.1902C137.317 38.1902 137.761 38.0659 138.158 37.8171C138.558 37.5684 138.874 37.2019 139.107 36.7176C139.342 36.2333 139.46 35.6392 139.46 34.9353ZM143.052 30.8706V39H142.068V30.8706H143.052ZM151.568 33.4111H150.583C150.525 33.1279 150.423 32.8792 150.278 32.6648C150.135 32.4505 149.96 32.2705 149.754 32.125C149.55 31.9768 149.324 31.8656 149.075 31.7915C148.826 31.7174 148.567 31.6804 148.297 31.6804C147.805 31.6804 147.359 31.8048 146.959 32.0535C146.562 32.3023 146.246 32.6688 146.011 33.1531C145.778 33.6373 145.661 34.2314 145.661 34.9353C145.661 35.6392 145.778 36.2333 146.011 36.7176C146.246 37.2019 146.562 37.5684 146.959 37.8171C147.359 38.0659 147.805 38.1902 148.297 38.1902C148.567 38.1902 148.826 38.1532 149.075 38.0791C149.324 38.005 149.55 37.8952 149.754 37.7496C149.96 37.6014 150.135 37.4202 150.278 37.2058C150.423 36.9888 150.525 36.7401 150.583 36.4596H151.568C151.494 36.875 151.359 37.2468 151.163 37.575C150.967 37.9031 150.724 38.1823 150.432 38.4125C150.141 38.6401 149.815 38.8134 149.452 38.9325C149.092 39.0516 148.707 39.1111 148.297 39.1111C147.604 39.1111 146.987 38.9418 146.447 38.6031C145.907 38.2643 145.483 37.7827 145.173 37.1582C144.863 36.5337 144.709 35.7927 144.709 34.9353C144.709 34.0779 144.863 33.337 145.173 32.7124C145.483 32.0879 145.907 31.6063 146.447 31.2676C146.987 30.9289 147.604 30.7595 148.297 30.7595C148.707 30.7595 149.092 30.819 149.452 30.9381C149.815 31.0572 150.141 31.2319 150.432 31.4621C150.724 31.6897 150.967 31.9675 151.163 32.2957C151.359 32.6212 151.494 32.993 151.568 33.4111ZM153.158 39V30.8706H158.065V31.7439H154.143V34.4907H157.811V35.364H154.143V38.1267H158.128V39H153.158Z" fill="black"/>
<circle cx="17" cy="21" r="17" fill="black"/>
<path fill-rule="evenodd" clip-rule="evenodd" d="M24.0415 21.8244H31.15C31.1208 22.3367 31.0645 22.8416 30.9824 23.3379H24.6703C24.5656 22.7724 24.356 22.2679 24.0415 21.8244ZM22.6244 20.5769H31.1668C31.1516 20.0651 31.1092 19.5602 31.0411 19.0635H17.2601L19.7741 19.5699C20.926 19.8064 21.8761 20.1421 22.6244 20.5769ZM9.97627 19.0635C10.1658 19.6305 10.467 20.1349 10.88 20.5769H2.8335C2.84873 20.0651 2.89109 19.5602 2.95918 19.0635H9.97627ZM14.6126 17.8159H30.8127C30.694 17.3001 30.5472 16.7951 30.374 16.3025H24.154C24.2449 16.6074 24.3125 16.9272 24.3567 17.2618L19.987 17.5307C19.9123 17.1573 19.7517 16.8211 19.5052 16.5224C19.443 16.445 19.3757 16.3717 19.3035 16.3025H14.8345C14.5945 16.5579 14.4746 16.8628 14.4746 17.217C14.4746 17.4344 14.5206 17.6341 14.6126 17.8159ZM9.86222 16.3025C9.77753 16.6753 9.73519 17.0697 9.73519 17.4859C9.73519 17.5976 9.73826 17.7076 9.74442 17.8159H3.18766C3.30632 17.3001 3.45312 16.7951 3.62637 16.3025H9.86222ZM23.6024 15.0549H29.8669C29.6248 14.5324 29.3518 14.0272 29.0503 13.5415H22.2054C22.7848 13.9737 23.2505 14.4782 23.6024 15.0549ZM11.7569 13.5415C11.3176 13.8556 10.9425 14.2181 10.6315 14.6289C10.5287 14.7664 10.4348 14.9084 10.3496 15.0549H4.13345C4.37553 14.5324 4.6485 14.0272 4.95002 13.5415H11.7569ZM14.9551 12.2939H5.82041C6.23931 11.7572 6.69601 11.2514 7.18653 10.7805H26.8138C27.3043 11.2514 27.761 11.7572 28.1799 12.2939H19.111C18.472 12.1849 17.7781 12.1303 17.0291 12.1303C16.2908 12.1303 15.5994 12.1849 14.9551 12.2939ZM12.7568 21.8244C13.3262 22.0647 13.9772 22.258 14.7098 22.4046L17.6902 22.9984C18.1361 23.0876 18.5129 23.2007 18.8204 23.3379H3.01796C2.93583 22.8416 2.87948 22.3367 2.85033 21.8244H12.7568ZM19.8899 24.5854H14.0333C14.2017 25.1569 14.5243 25.6026 15.0012 25.9227C15.0993 25.9872 15.2024 26.0459 15.3105 26.0989H18.9007C18.9744 26.0617 19.0452 26.0216 19.1131 25.9787C19.6285 25.6501 19.8899 25.228 19.8974 24.7126C19.8966 24.6695 19.8942 24.627 19.8899 24.5854ZM9.68943 26.0989C9.49131 25.6318 9.35378 25.1273 9.27684 24.5854H3.28289C3.41728 25.102 3.58008 25.607 3.76951 26.0989H9.68943ZM10.4322 27.3464C10.7665 27.7655 11.1691 28.1424 11.6399 28.4772C11.8359 28.6147 12.0416 28.7423 12.257 28.8598H5.20011C4.87715 28.3755 4.5832 27.8702 4.32077 27.3464H10.4322ZM21.7484 28.8598C22.5074 28.454 23.1361 27.9495 23.6346 27.3464H29.6796C29.4171 27.8702 29.1232 28.3755 28.8002 28.8598H21.7484ZM24.3952 26.0989C24.5889 25.6275 24.703 25.123 24.7376 24.5854H30.7174C30.583 25.102 30.4202 25.607 30.2308 26.0989H24.3952ZM7.60796 31.6208C7.08033 31.1536 6.58779 30.6476 6.1348 30.1074H27.8655C27.4125 30.6476 26.92 31.1536 26.3924 31.6208H7.60796ZM17.0002 35.1794C14.1356 35.1794 11.4696 34.3296 9.24039 32.8684H24.7599C22.5307 34.3296 19.8647 35.1794 17.0002 35.1794ZM25.3227 9.53295H8.67764C11.0146 7.83485 13.8904 6.83333 17.0002 6.83333C20.1099 6.83333 22.9857 7.83485 25.3227 9.53295Z" fill="#FFB800"/>
</svg>
