<svg width="358" height="47" viewBox="0 0 358 47" fill="none" xmlns="http://www.w3.org/2000/svg">
<path fill-rule="evenodd" clip-rule="evenodd" d="M45.5954 24.6595H0.027119C0.0740708 25.4844 0.164835 26.2976 0.297121 27.0968H45.3254C45.4577 26.2976 45.5485 25.4844 45.5954 24.6595ZM44.8988 29.1056H0.723754C0.940165 29.9373 1.20231 30.7505 1.50733 31.5424H44.1152C44.4202 30.7505 44.6824 29.9373 44.8988 29.1056ZM43.2275 33.5512H2.39502C2.81768 34.3948 3.29109 35.2086 3.81124 35.9885H41.8113C42.3315 35.2086 42.8049 34.3948 43.2275 33.5512ZM40.3062 37.9973H5.3164C6.04585 38.8672 6.83897 39.6819 7.6886 40.4341H37.934C38.7836 39.6819 39.5767 38.8672 40.3062 37.9973ZM35.3051 42.443H10.3174C13.9067 44.7955 18.1992 46.1636 22.8113 46.1636C27.4233 46.1636 31.7159 44.7955 35.3051 42.443ZM45.6226 22.6507H0C0.0245128 21.8268 0.0926872 21.014 0.202289 20.2143H45.4203C45.5299 21.014 45.598 21.8268 45.6226 22.6507ZM45.0524 18.2055C44.8614 17.375 44.6251 16.5618 44.3461 15.7687H1.27641C0.997483 16.5618 0.761139 17.375 0.570114 18.2055H45.0524ZM2.09281 13.7598H43.5297C43.1399 12.9184 42.7004 12.1047 42.2148 11.3226H3.40772C2.92219 12.1047 2.48263 12.9184 2.09281 13.7598ZM4.80915 9.31374H40.8134C40.1388 8.44926 39.4033 7.63462 38.6133 6.87628H7.00929C6.2193 7.63462 5.48377 8.44926 4.80915 9.31374ZM9.41028 4.86746H36.2123C32.4493 2.13317 27.8186 0.520508 22.8113 0.520508C17.8039 0.520508 13.1733 2.13317 9.41028 4.86746Z" fill="#FFD600"/>
<path d="M34.6563 17.3131L27.6203 17.7461C27.5 17.1447 27.2415 16.6035 26.8445 16.1224C26.4476 15.6293 25.9245 15.2384 25.275 14.9497C24.6375 14.649 23.8738 14.4987 22.9838 14.4987C21.793 14.4987 20.7888 14.7513 19.9709 15.2564C19.153 15.7495 18.7441 16.4111 18.7441 17.2409C18.7441 17.9024 19.0087 18.4617 19.5379 18.9188C20.0671 19.3758 20.9752 19.7426 22.2621 20.0193L27.2775 21.0296C29.9717 21.5828 31.9802 22.4729 33.3033 23.6996C34.6263 24.9264 35.2878 26.5381 35.2878 28.5347C35.2878 30.3508 34.7526 31.9444 33.6821 33.3155C32.6237 34.6867 31.1684 35.7571 29.3162 36.5269C27.476 37.2846 25.3532 37.6634 22.9477 37.6634C19.2793 37.6634 16.3567 36.8997 14.1797 35.3722C12.0148 33.8327 10.7459 31.74 10.373 29.0939L17.9323 28.697C18.1608 29.8156 18.714 30.6695 19.592 31.2589C20.47 31.8362 21.5946 32.1248 22.9657 32.1248C24.3128 32.1248 25.3952 31.8662 26.2131 31.3491C27.043 30.8199 27.464 30.1403 27.476 29.3104C27.464 28.6128 27.1693 28.0415 26.592 27.5965C26.0147 27.1395 25.1246 26.7907 23.9219 26.5501L19.123 25.594C16.4168 25.0527 14.4022 24.1146 13.0792 22.7796C11.7682 21.4445 11.1127 19.7426 11.1127 17.6739C11.1127 15.8939 11.5938 14.3604 12.556 13.0735C13.5302 11.7865 14.8953 10.7943 16.6513 10.0967C18.4194 9.39909 20.4881 9.05029 22.8575 9.05029C26.3574 9.05029 29.1117 9.78998 31.1203 11.2693C33.1409 12.7487 34.3196 14.7633 34.6563 17.3131Z" fill="black"/>
<path d="M59.8745 21V5.27113H66.3719C67.5495 5.27113 68.5658 5.50154 69.4209 5.96234C70.281 6.41803 70.9441 7.05548 71.41 7.87469C71.876 8.68878 72.1089 9.636 72.1089 10.7163C72.1089 11.8018 71.8708 12.7516 71.3947 13.5657C70.9236 14.3746 70.2503 15.0018 69.3748 15.4473C68.4993 15.8927 67.4599 16.1154 66.2567 16.1154H62.2477V13.1202H65.5501C66.1235 13.1202 66.6023 13.0204 66.9863 12.8207C67.3754 12.621 67.6698 12.342 67.8695 11.9836C68.0692 11.62 68.169 11.1976 68.169 10.7163C68.169 10.2299 68.0692 9.81008 67.8695 9.45679C67.6698 9.09839 67.3754 8.82191 66.9863 8.62734C66.5972 8.43278 66.1184 8.3355 65.5501 8.3355H63.6762V21H59.8745ZM73.4683 8.35854V5.27113H86.7626V8.35854H81.9932V21H78.2453V8.35854H73.4683ZM101.768 9.98672C101.716 9.42351 101.489 8.98575 101.084 8.67342C100.685 8.35598 100.114 8.19726 99.3714 8.19726C98.8799 8.19726 98.4703 8.26126 98.1426 8.38926C97.8149 8.51726 97.5691 8.6939 97.4053 8.91919C97.2414 9.13935 97.157 9.39279 97.1518 9.67952C97.1416 9.91504 97.1877 10.1224 97.2901 10.3016C97.3976 10.4808 97.5512 10.6395 97.7509 10.7778C97.9557 10.9109 98.2014 11.0287 98.4882 11.1311C98.7749 11.2335 99.0975 11.3231 99.4559 11.3999L100.808 11.7071C101.586 11.876 102.272 12.1013 102.866 12.3829C103.465 12.6645 103.967 12.9999 104.371 13.389C104.781 13.7781 105.091 14.2261 105.3 14.733C105.51 15.2399 105.618 15.8082 105.623 16.438C105.618 17.4313 105.367 18.2838 104.87 18.9955C104.374 19.7072 103.659 20.2525 102.728 20.6314C101.801 21.0102 100.682 21.1997 99.3714 21.1997C98.0555 21.1997 96.9086 21.0026 95.9307 20.6083C94.9528 20.2141 94.1924 19.615 93.6497 18.8112C93.107 18.0073 92.8279 16.991 92.8126 15.7622H96.4529C96.4837 16.2691 96.6193 16.6915 96.86 17.0294C97.1006 17.3673 97.4309 17.6233 97.8507 17.7974C98.2757 17.9715 98.7672 18.0585 99.3253 18.0585C99.8373 18.0585 100.273 17.9894 100.631 17.8512C100.994 17.7129 101.273 17.5209 101.468 17.2751C101.663 17.0294 101.762 16.7478 101.768 16.4303C101.762 16.1334 101.67 15.8799 101.491 15.67C101.312 15.455 101.035 15.2706 100.662 15.117C100.293 14.9583 99.822 14.8124 99.2485 14.6793L97.605 14.2953C96.243 13.9829 95.1704 13.4786 94.387 12.7823C93.6036 12.0808 93.2145 11.1336 93.2196 9.94064C93.2145 8.96783 93.4756 8.11534 94.003 7.38316C94.5304 6.65099 95.26 6.08011 96.1918 5.6705C97.1237 5.26089 98.1861 5.05609 99.3791 5.05609C100.598 5.05609 101.655 5.26345 102.551 5.67818C103.452 6.08779 104.151 6.66379 104.648 7.40621C105.144 8.14862 105.398 9.00879 105.408 9.98672H101.768ZM111.345 5.27113V21H107.543V5.27113H111.345ZM127.118 5.27113V21H123.892L117.633 11.9221H117.533V21H113.731V5.27113H117.003L123.193 14.3337H123.324V5.27113H127.118ZM132.91 21H128.825L134.132 5.27113H139.193L144.5 21H140.414L136.72 9.23407H136.597L132.91 21ZM132.365 14.8098H140.905V17.6976H132.365V14.8098ZM146.193 21V5.27113H152.691C153.868 5.27113 154.885 5.48362 155.74 5.90858C156.6 6.32843 157.263 6.9326 157.729 7.72109C158.195 8.50446 158.428 9.43375 158.428 10.509C158.428 11.5995 158.19 12.5263 157.713 13.2892C157.237 14.0469 156.561 14.6255 155.686 15.0249C154.81 15.4191 153.773 15.6162 152.575 15.6162H148.466V12.621H151.869C152.442 12.621 152.921 12.5468 153.305 12.3983C153.694 12.2447 153.988 12.0143 154.188 11.7071C154.388 11.3947 154.488 10.9954 154.488 10.509C154.488 10.0226 154.388 9.62064 154.188 9.30319C153.988 8.98063 153.694 8.73998 153.305 8.58126C152.916 8.41742 152.437 8.3355 151.869 8.3355H149.995V21H146.193ZM155.048 13.8114L158.965 21H154.818L150.978 13.8114H155.048ZM165.159 21V5.27113H171.718C172.896 5.27113 173.881 5.43754 174.675 5.77034C175.474 6.10315 176.073 6.56907 176.472 7.16812C176.876 7.76717 177.079 8.46094 177.079 9.24943C177.079 9.84848 176.953 10.3835 176.702 10.8546C176.452 11.3205 176.106 11.7071 175.666 12.0143C175.225 12.3215 174.716 12.5365 174.137 12.6594V12.813C174.772 12.8437 175.358 13.0152 175.896 13.3276C176.439 13.6399 176.874 14.0751 177.202 14.6332C177.529 15.1862 177.693 15.8415 177.693 16.5993C177.693 17.4441 177.478 18.1993 177.048 18.8649C176.618 19.5254 175.996 20.0477 175.182 20.4317C174.368 20.8106 173.379 21 172.217 21H165.159ZM168.961 17.9356H171.311C172.135 17.9356 172.742 17.7795 173.131 17.4671C173.525 17.1548 173.723 16.7196 173.723 16.1615C173.723 15.757 173.628 15.4089 173.438 15.117C173.249 14.8201 172.98 14.5922 172.632 14.4335C172.284 14.2697 171.867 14.1877 171.38 14.1877H168.961V17.9356ZM168.961 11.7378H171.065C171.48 11.7378 171.849 11.6687 172.171 11.5304C172.494 11.3922 172.745 11.1925 172.924 10.9314C173.108 10.6703 173.2 10.3554 173.2 9.98672C173.2 9.45935 173.013 9.04463 172.64 8.74254C172.266 8.44046 171.762 8.28942 171.127 8.28942H168.961V11.7378ZM189.037 5.27113H192.831V15.4166C192.831 16.5891 192.552 17.6105 191.994 18.4809C191.435 19.3462 190.657 20.0169 189.659 20.4931C188.66 20.9642 187.501 21.1997 186.18 21.1997C184.843 21.1997 183.676 20.9642 182.678 20.4931C181.679 20.0169 180.903 19.3462 180.35 18.4809C179.797 17.6105 179.521 16.5891 179.521 15.4166V5.27113H183.323V15.0863C183.323 15.629 183.44 16.1129 183.676 16.5379C183.917 16.9628 184.252 17.2956 184.682 17.5363C185.112 17.7769 185.611 17.8972 186.18 17.8972C186.748 17.8972 187.245 17.7769 187.67 17.5363C188.1 17.2956 188.435 16.9628 188.676 16.5379C188.916 16.1129 189.037 15.629 189.037 15.0863V5.27113ZM195.213 21V5.27113H199.015V17.9126H205.559V21H195.213ZM211.14 21H207.054L212.361 5.27113H217.422L222.729 21H218.643L214.949 9.23407H214.826L211.14 21ZM210.595 14.8098H219.135V17.6976H210.595V14.8098ZM237.809 5.27113V21H234.584L228.324 11.9221H228.224V21H224.423V5.27113H227.695L233.885 14.3337H234.015V5.27113H237.809ZM244.846 21V5.27113H251.343C252.521 5.27113 253.537 5.50154 254.392 5.96234C255.253 6.41803 255.916 7.05548 256.382 7.87469C256.848 8.68878 257.081 9.636 257.081 10.7163C257.081 11.8018 256.842 12.7516 256.366 13.5657C255.895 14.3746 255.222 15.0018 254.346 15.4473C253.471 15.8927 252.432 16.1154 251.228 16.1154H247.219V13.1202H250.522C251.095 13.1202 251.574 13.0204 251.958 12.8207C252.347 12.621 252.641 12.342 252.841 11.9836C253.041 11.62 253.141 11.1976 253.141 10.7163C253.141 10.2299 253.041 9.81008 252.841 9.45679C252.641 9.09839 252.347 8.82191 251.958 8.62734C251.569 8.43278 251.09 8.3355 250.522 8.3355H248.648V21H244.846ZM268.47 5.27113H272.264V15.4166C272.264 16.5891 271.985 17.6105 271.427 18.4809C270.869 19.3462 270.091 20.0169 269.092 20.4931C268.094 20.9642 266.934 21.1997 265.613 21.1997C264.277 21.1997 263.109 20.9642 262.111 20.4931C261.113 20.0169 260.337 19.3462 259.784 18.4809C259.231 17.6105 258.954 16.5891 258.954 15.4166V5.27113H262.756V15.0863C262.756 15.629 262.874 16.1129 263.109 16.5379C263.35 16.9628 263.685 17.2956 264.116 17.5363C264.546 17.7769 265.045 17.8972 265.613 17.8972C266.181 17.8972 266.678 17.7769 267.103 17.5363C267.533 17.2956 267.869 16.9628 268.109 16.5379C268.35 16.1129 268.47 15.629 268.47 15.0863V5.27113ZM274.647 21V5.27113H281.144C282.322 5.27113 283.338 5.48362 284.193 5.90858C285.053 6.32843 285.716 6.9326 286.182 7.72109C286.648 8.50446 286.881 9.43375 286.881 10.509C286.881 11.5995 286.643 12.5263 286.167 13.2892C285.691 14.0469 285.015 14.6255 284.139 15.0249C283.264 15.4191 282.227 15.6162 281.029 15.6162H276.92V12.621H280.322C280.896 12.621 281.375 12.5468 281.759 12.3983C282.148 12.2447 282.442 12.0143 282.642 11.7071C282.842 11.3947 282.941 10.9954 282.941 10.509C282.941 10.0226 282.842 9.62064 282.642 9.30319C282.442 8.98063 282.148 8.73998 281.759 8.58126C281.37 8.41742 280.891 8.3355 280.322 8.3355H278.449V21H274.647ZM283.502 13.8114L287.419 21H283.272L279.432 13.8114H283.502ZM302.353 5.27113V21H299.127L292.868 11.9221H292.768V21H288.966V5.27113H292.238L298.428 14.3337H298.559V5.27113H302.353ZM308.146 21H304.06L309.367 5.27113H314.428L319.735 21H315.649L311.955 9.23407H311.832L308.146 21ZM307.6 14.8098H316.141V17.6976H307.6V14.8098ZM321.428 5.27113H326.136L330.13 15.0095H330.314L334.308 5.27113H339.016V21H335.314V11.3384H335.183L331.405 20.9002H329.039L325.261 11.2847H325.13V21H321.428V5.27113ZM344.789 21H340.703L346.01 5.27113H351.072L356.379 21H352.293L348.599 9.23407H348.476L344.789 21ZM344.244 14.8098H352.784V17.6976H344.244V14.8098Z" fill="white"/>
<path d="M59.9678 41.9062V31.3048H66.366V32.4437H61.2516V36.0258H66.0347V37.1646H61.2516V40.7674H66.4488V41.9062H59.9678ZM69.301 31.3048L72.0342 35.7152H72.117L74.8502 31.3048H76.3617L73.0281 36.6055L76.3617 41.9062H74.8502L72.117 37.5787H72.0342L69.301 41.9062H67.7895L71.206 36.6055L67.7895 31.3048H69.301ZM86.3924 34.6178H85.1086C85.0327 34.2485 84.8999 33.9241 84.7101 33.6446C84.5237 33.3651 84.2959 33.1304 84.0268 32.9406C83.761 32.7474 83.466 32.6024 83.1416 32.5058C82.8172 32.4092 82.479 32.3608 82.127 32.3608C81.4851 32.3608 80.9036 32.523 80.3825 32.8474C79.8649 33.1718 79.4525 33.6498 79.1454 34.2813C78.8417 34.9128 78.6898 35.6876 78.6898 36.6055C78.6898 37.5235 78.8417 38.2983 79.1454 38.9298C79.4525 39.5613 79.8649 40.0393 80.3825 40.3637C80.9036 40.6881 81.4851 40.8503 82.127 40.8503C82.479 40.8503 82.8172 40.8019 83.1416 40.7053C83.466 40.6087 83.761 40.4655 84.0268 40.2757C84.2959 40.0824 84.5237 39.846 84.7101 39.5665C84.8999 39.2835 85.0327 38.9591 85.1086 38.5933H86.3924C86.2958 39.1351 86.1198 39.62 85.8644 40.0479C85.609 40.4758 85.2916 40.8399 84.9119 41.1401C84.5323 41.4369 84.1061 41.663 83.6334 41.8183C83.164 41.9735 82.6619 42.0512 82.127 42.0512C81.2228 42.0512 80.4188 41.8303 79.7148 41.3886C79.0108 40.9469 78.4569 40.3188 78.0531 39.5044C77.6494 38.6899 77.4475 37.7237 77.4475 36.6055C77.4475 35.4874 77.6494 34.5212 78.0531 33.7067C78.4569 32.8923 79.0108 32.2642 79.7148 31.8225C80.4188 31.3808 81.2228 31.1599 82.127 31.1599C82.6619 31.1599 83.164 31.2376 83.6334 31.3928C84.1061 31.5481 84.5323 31.7759 84.9119 32.0761C85.2916 32.3729 85.609 32.7353 85.8644 33.1632C86.1198 33.5877 86.2958 34.0725 86.3924 34.6178ZM88.4669 41.9062V31.3048H94.865V32.4437H89.7506V36.0258H94.5337V37.1646H89.7506V40.7674H94.9478V41.9062H88.4669ZM97.1789 41.9062V31.3048H98.4626V40.7674H103.391V41.9062H97.1789ZM105.378 41.9062V31.3048H106.662V40.7674H111.59V41.9062H105.378ZM113.578 41.9062V31.3048H119.976V32.4437H114.862V36.0258H119.645V37.1646H114.862V40.7674H120.059V41.9062H113.578ZM130.696 31.3048V41.9062H129.454L123.677 33.5825H123.574V41.9062H122.29V31.3048H123.532L129.33 39.6493H129.433V31.3048H130.696ZM141.796 34.6178H140.512C140.436 34.2485 140.304 33.9241 140.114 33.6446C139.927 33.3651 139.7 33.1304 139.43 32.9406C139.165 32.7474 138.87 32.6024 138.545 32.5058C138.221 32.4092 137.883 32.3608 137.531 32.3608C136.889 32.3608 136.307 32.523 135.786 32.8474C135.269 33.1718 134.856 33.6498 134.549 34.2813C134.245 34.9128 134.094 35.6876 134.094 36.6055C134.094 37.5235 134.245 38.2983 134.549 38.9298C134.856 39.5613 135.269 40.0393 135.786 40.3637C136.307 40.6881 136.889 40.8503 137.531 40.8503C137.883 40.8503 138.221 40.8019 138.545 40.7053C138.87 40.6087 139.165 40.4655 139.43 40.2757C139.7 40.0824 139.927 39.846 140.114 39.5665C140.304 39.2835 140.436 38.9591 140.512 38.5933H141.796C141.7 39.1351 141.524 39.62 141.268 40.0479C141.013 40.4758 140.695 40.8399 140.316 41.1401C139.936 41.4369 139.51 41.663 139.037 41.8183C138.568 41.9735 138.066 42.0512 137.531 42.0512C136.627 42.0512 135.822 41.8303 135.118 41.3886C134.414 40.9469 133.861 40.3188 133.457 39.5044C133.053 38.6899 132.851 37.7237 132.851 36.6055C132.851 35.4874 133.053 34.5212 133.457 33.7067C133.861 32.8923 134.414 32.2642 135.118 31.8225C135.822 31.3808 136.627 31.1599 137.531 31.1599C138.066 31.1599 138.568 31.2376 139.037 31.3928C139.51 31.5481 139.936 31.7759 140.316 32.0761C140.695 32.3729 141.013 32.7353 141.268 33.1632C141.524 33.5877 141.7 34.0725 141.796 34.6178ZM143.871 41.9062V31.3048H150.269V32.4437H145.154V36.0258H149.937V37.1646H145.154V40.7674H150.352V41.9062H143.871ZM165.213 34.6178H163.929C163.853 34.2485 163.721 33.9241 163.531 33.6446C163.344 33.3651 163.117 33.1304 162.848 32.9406C162.582 32.7474 162.287 32.6024 161.962 32.5058C161.638 32.4092 161.3 32.3608 160.948 32.3608C160.306 32.3608 159.724 32.523 159.203 32.8474C158.686 33.1718 158.273 33.6498 157.966 34.2813C157.662 34.9128 157.511 35.6876 157.511 36.6055C157.511 37.5235 157.662 38.2983 157.966 38.9298C158.273 39.5613 158.686 40.0393 159.203 40.3637C159.724 40.6881 160.306 40.8503 160.948 40.8503C161.3 40.8503 161.638 40.8019 161.962 40.7053C162.287 40.6087 162.582 40.4655 162.848 40.2757C163.117 40.0824 163.344 39.846 163.531 39.5665C163.721 39.2835 163.853 38.9591 163.929 38.5933H165.213C165.117 39.1351 164.941 39.62 164.685 40.0479C164.43 40.4758 164.112 40.8399 163.733 41.1401C163.353 41.4369 162.927 41.663 162.454 41.8183C161.985 41.9735 161.483 42.0512 160.948 42.0512C160.044 42.0512 159.24 41.8303 158.536 41.3886C157.832 40.9469 157.278 40.3188 156.874 39.5044C156.47 38.6899 156.268 37.7237 156.268 36.6055C156.268 35.4874 156.47 34.5212 156.874 33.7067C157.278 32.8923 157.832 32.2642 158.536 31.8225C159.24 31.3808 160.044 31.1599 160.948 31.1599C161.483 31.1599 161.985 31.2376 162.454 31.3928C162.927 31.5481 163.353 31.7759 163.733 32.0761C164.112 32.3729 164.43 32.7353 164.685 33.1632C164.941 33.5877 165.117 34.0725 165.213 34.6178ZM167.288 41.9062V31.3048H168.571V36.0258H174.224V31.3048H175.508V41.9062H174.224V37.1646H168.571V41.9062H167.288ZM187.023 36.6055C187.023 37.7237 186.821 38.6899 186.417 39.5044C186.014 40.3188 185.46 40.9469 184.756 41.3886C184.052 41.8303 183.248 42.0512 182.343 42.0512C181.439 42.0512 180.635 41.8303 179.931 41.3886C179.227 40.9469 178.673 40.3188 178.27 39.5044C177.866 38.6899 177.664 37.7237 177.664 36.6055C177.664 35.4874 177.866 34.5212 178.27 33.7067C178.673 32.8923 179.227 32.2642 179.931 31.8225C180.635 31.3808 181.439 31.1599 182.343 31.1599C183.248 31.1599 184.052 31.3808 184.756 31.8225C185.46 32.2642 186.014 32.8923 186.417 33.7067C186.821 34.5212 187.023 35.4874 187.023 36.6055ZM185.781 36.6055C185.781 35.6876 185.627 34.9128 185.32 34.2813C185.016 33.6498 184.604 33.1718 184.083 32.8474C183.565 32.523 182.985 32.3608 182.343 32.3608C181.702 32.3608 181.12 32.523 180.599 32.8474C180.081 33.1718 179.669 33.6498 179.362 34.2813C179.058 34.9128 178.906 35.6876 178.906 36.6055C178.906 37.5235 179.058 38.2983 179.362 38.9298C179.669 39.5613 180.081 40.0393 180.599 40.3637C181.12 40.6881 181.702 40.8503 182.343 40.8503C182.985 40.8503 183.565 40.6881 184.083 40.3637C184.604 40.0393 185.016 39.5613 185.32 38.9298C185.627 38.2983 185.781 37.5235 185.781 36.6055ZM190.465 31.3048V41.9062H189.182V31.3048H190.465ZM201.57 34.6178H200.286C200.21 34.2485 200.078 33.9241 199.888 33.6446C199.701 33.3651 199.474 33.1304 199.204 32.9406C198.939 32.7474 198.644 32.6024 198.319 32.5058C197.995 32.4092 197.657 32.3608 197.305 32.3608C196.663 32.3608 196.081 32.523 195.56 32.8474C195.043 33.1718 194.63 33.6498 194.323 34.2813C194.019 34.9128 193.868 35.6876 193.868 36.6055C193.868 37.5235 194.019 38.2983 194.323 38.9298C194.63 39.5613 195.043 40.0393 195.56 40.3637C196.081 40.6881 196.663 40.8503 197.305 40.8503C197.657 40.8503 197.995 40.8019 198.319 40.7053C198.644 40.6087 198.939 40.4655 199.204 40.2757C199.474 40.0824 199.701 39.846 199.888 39.5665C200.078 39.2835 200.21 38.9591 200.286 38.5933H201.57C201.473 39.1351 201.297 39.62 201.042 40.0479C200.787 40.4758 200.469 40.8399 200.09 41.1401C199.71 41.4369 199.284 41.663 198.811 41.8183C198.342 41.9735 197.84 42.0512 197.305 42.0512C196.401 42.0512 195.596 41.8303 194.892 41.3886C194.188 40.9469 193.635 40.3188 193.231 39.5044C192.827 38.6899 192.625 37.7237 192.625 36.6055C192.625 35.4874 192.827 34.5212 193.231 33.7067C193.635 32.8923 194.188 32.2642 194.892 31.8225C195.596 31.3808 196.401 31.1599 197.305 31.1599C197.84 31.1599 198.342 31.2376 198.811 31.3928C199.284 31.5481 199.71 31.7759 200.09 32.0761C200.469 32.3729 200.787 32.7353 201.042 33.1632C201.297 33.5877 201.473 34.0725 201.57 34.6178ZM203.645 41.9062V31.3048H210.043V32.4437H204.928V36.0258H209.711V37.1646H204.928V40.7674H210.125V41.9062H203.645Z" fill="white"/>
</svg>
