<svg width="112" height="72" viewBox="0 0 112 72" fill="none" xmlns="http://www.w3.org/2000/svg">
<g clip-path="url(#clip0_75_125)">
<path d="M16.154 71.6306L20.6797 49.1152H28.0435L23.5434 71.6306H16.154ZM38.3733 64.2615H43.0524L41.8506 55.9999L38.3733 64.2615ZM28.0435 71.6306L39.1915 49.1152H46.453L51.0298 71.6306H44.203L43.7939 68.9532H36.5323L35.3817 71.6306H28.0435ZM57.8055 71.6306L60.3368 54.6994H53.8935L54.993 49.0132H74.7832L73.6837 54.6994H67.5472L65.0671 71.6306H57.8055ZM82.5561 64.2615H87.2352L86.0335 55.9999L82.5561 64.2615ZM72.2519 71.6306L83.3743 49.1152H90.6358L95.2126 71.6306H88.3346L88.0022 68.9532H80.7407L79.5901 71.6306H72.2519ZM111.295 23.6675H76.6497C75.3713 29.9912 70.9734 35.2694 62.2034 38.9157C63.2006 41.9246 66.6012 44.704 70.1297 44.704H88.9227C91.7864 44.704 94.062 42.3071 94.9825 40.3692H75.8827C74.7065 40.1652 74.6554 39.2217 75.8315 39.1197H94.599C97.028 39.1197 99.2269 37.0543 100.505 34.8105H78.6441C77.5446 34.632 77.5446 33.714 78.6441 33.5355H100.684C102.909 33.5355 104.929 30.9601 105.773 29.2262H81.5845C80.3828 29.0732 80.3828 27.9513 81.5845 27.9258H106.207C108.125 27.9258 109.991 25.8349 111.295 23.6675ZM0.352539 23.6675H34.9982C36.2511 29.9912 40.6745 35.2694 49.419 38.9157C48.4218 41.9246 45.0212 44.704 41.4927 44.704H22.7252C19.8615 44.704 17.5859 42.3071 16.6654 40.3692H35.7653C36.9159 40.1652 36.9926 39.2217 35.8164 39.1197H17.0234C14.5943 39.1197 12.3954 37.0543 11.1426 34.8105H33.0294C34.1289 34.632 34.1289 33.714 33.0294 33.5355H10.9891C8.76466 33.5355 6.74473 30.9601 5.90096 29.2262H30.089C31.2907 29.0732 31.2907 27.9513 30.089 27.9258H5.46629C3.52307 27.9258 1.65655 25.8349 0.352539 23.6675ZM44.5865 4.69647C45.8649 5.79292 47.2968 6.76187 48.8309 7.37384C50.1349 4.82397 51.9503 2.63108 54.0469 0.693176C50.5951 1.15215 47.3479 2.45259 44.5865 4.69647ZM38.45 17.2673H46.1718C46.3507 14.1055 47.0155 11.3261 48.2684 8.47028C46.5553 7.70532 45.0723 6.78737 43.6404 5.56343C40.4444 8.75077 38.6801 12.8561 38.45 17.2673ZM55.2231 10.0512V17.2673H47.5013C47.5525 14.437 48.2173 11.5301 49.419 8.90376C51.2599 9.56673 53.2543 10.0002 55.2231 10.0512ZM67.0614 4.69647C65.8086 5.79292 64.3256 6.76187 62.817 7.37384C61.4363 4.77297 59.7232 2.68208 57.5754 0.718675C61.0528 1.15215 64.3 2.45259 67.0614 4.69647ZM73.1724 17.2673H65.4762C65.3739 14.1565 64.658 11.2496 63.4307 8.47028C65.0671 7.70532 66.6268 6.73637 67.9819 5.56343C71.3058 8.87826 73.019 12.9581 73.1724 17.2673ZM56.476 10.0512V17.2673H64.1466C64.1466 14.3605 63.4307 11.5811 62.2289 8.90376C60.388 9.56673 58.4192 10.0002 56.476 10.0512ZM44.5865 31.1131C45.8649 30.1187 47.3479 29.0222 48.8309 28.4868C50.2116 31.0621 51.9247 33.1785 54.0469 35.0909C50.5951 34.632 47.2968 33.3315 44.5865 31.1131ZM38.45 18.5168H46.1718C46.3507 21.7041 47.0155 24.509 48.2684 27.3903C46.5553 28.1553 45.0723 29.0732 43.6404 30.2717C40.4955 27.1098 38.6801 23.0045 38.45 18.5168ZM55.2231 25.7584V18.5168H47.5013C47.5525 21.4236 48.2173 24.305 49.419 26.8804C51.2599 26.2174 53.2543 25.8094 55.2231 25.7584ZM67.0614 31.1131C65.8597 30.0677 64.3256 29.0987 62.817 28.4868C61.4363 31.0621 59.7232 33.1785 57.5754 35.0909C61.0528 34.632 64.3 33.3315 67.0614 31.1131ZM73.1724 18.5168H65.4762C65.3739 21.7041 64.6835 24.5345 63.4307 27.3903C65.0671 28.1553 66.5501 29.0732 67.9819 30.2717C71.1524 27.1098 73.019 22.9026 73.1724 18.5168ZM56.476 25.7584V18.5168H64.1466C64.1466 21.4236 63.4307 24.254 62.2289 26.8804C60.4391 26.2174 58.3681 25.8094 56.476 25.7584ZM55.2231 1.43264C53.1265 3.11555 51.2599 5.41044 50.0326 7.80732C51.6946 8.36829 53.4589 8.82727 55.2231 8.82727V1.43264ZM56.476 1.43264C58.5215 3.11555 60.388 5.33394 61.6153 7.80732C59.9533 8.41929 58.1891 8.82727 56.476 8.82727V1.43264ZM55.2231 34.377C53.1265 32.7196 51.2599 30.4247 50.0326 27.9768C51.6946 27.3903 53.4589 27.0588 55.2231 27.0588V34.377ZM56.476 34.428C58.5215 32.7196 60.388 30.4247 61.6153 27.9768C59.9533 27.4413 58.1891 27.0588 56.476 27.0588V34.428Z" fill="#004E81"/>
</g>
<defs>
<clipPath id="clip0_75_125">
<rect width="110.943" height="70.9119" fill="white" transform="translate(0.352539 0.718689)"/>
</clipPath>
</defs>
</svg>
