<svg width="85" height="77" viewBox="0 0 85 77" fill="none" xmlns="http://www.w3.org/2000/svg">
<g clip-path="url(#clip0_75_127)">
<path fill-rule="evenodd" clip-rule="evenodd" d="M42.3184 0L63.4776 14.6875L84.6368 29.3751L76.4258 53.0029L68.5305 76.6306H42.3184H16.1063L8.21103 53.0029L0 29.3751L21.1592 14.6875L42.3184 0Z" fill="#F7D915"/>
<path fill-rule="evenodd" clip-rule="evenodd" d="M42.3184 3.51224L61.5828 16.9226L80.8471 30.0137L73.5835 51.7257L66.0041 73.1184H42.3184H18.6328L11.0533 51.7257L3.78973 30.0137L23.0541 16.9226L42.3184 3.51224Z" fill="#016316"/>
<path fill-rule="evenodd" clip-rule="evenodd" d="M27.7912 57.1537C27.1596 57.473 26.8438 57.473 26.528 57.7923C25.2648 55.5572 24.0015 54.28 22.7383 54.28C21.7909 54.28 21.1593 54.28 20.5276 54.9186C19.2644 55.5572 18.0012 54.9186 18.317 53.6414C17.0537 52.6836 17.6854 50.7678 19.2644 51.0871C20.2118 49.8099 21.7909 50.4485 21.7909 52.045C21.7909 52.6836 22.4225 53.3221 23.0541 53.9607C23.3699 53.9607 23.3699 53.9607 23.3699 53.3221C22.1067 51.0871 21.4751 49.8099 20.5276 49.8099C19.5802 49.4906 18.9486 49.4906 18.6328 49.8099C17.0537 51.0871 15.7905 49.4906 16.4221 48.2134C15.7905 47.2556 16.1063 45.9784 17.6854 46.2977C18.0012 45.0205 19.896 45.3398 20.2118 46.9363C20.2118 47.8941 19.896 48.2134 20.8434 49.4906C21.1593 49.8099 21.1593 49.4906 21.1593 48.852C20.8434 48.5327 20.8434 47.5748 20.5276 46.2977C20.2118 45.0205 19.2644 44.0626 18.317 43.7433C17.6854 43.7433 17.3695 44.0626 17.0537 44.0626C16.1063 44.7012 14.8431 43.424 15.7905 42.4661C15.1589 41.189 15.7905 39.9118 17.3695 40.8697C18.317 39.9118 19.896 40.5504 19.2644 42.1468C18.9486 42.7854 18.9486 43.424 19.2644 43.7433C19.5802 44.0626 19.896 44.3819 20.2118 44.3819C20.2118 43.1047 20.2118 41.8275 20.2118 40.8697C20.2118 40.5504 19.896 40.2311 19.5802 39.5925C18.6328 38.3153 18.317 38.9539 17.0537 38.6346C16.1063 38.3153 15.7905 37.0381 16.7379 36.3995C15.7905 35.1224 17.3695 33.8452 18.6328 35.1224C19.5802 34.4838 20.8434 35.4417 20.2118 36.7188C19.896 37.6767 19.5802 37.6767 19.5802 38.6346C19.896 38.9539 19.896 39.2732 20.2118 39.5925C20.2118 39.5925 20.2118 39.5925 20.2118 39.2732C20.5276 37.996 20.8434 37.0381 20.8434 36.3995C20.8434 35.761 20.8434 35.4417 20.8434 35.1224C20.5276 34.8031 20.2118 34.4838 20.2118 34.1645C19.896 33.5259 19.2644 33.2066 18.6328 33.2066C17.6854 32.8873 17.3695 31.2908 18.6328 30.9715C18.317 29.6944 19.896 29.0558 20.8434 30.333C22.1067 30.0137 22.7383 31.6101 21.7909 32.2487C21.1593 32.8873 20.8434 33.5259 21.1593 34.8031C21.1593 35.1224 21.4751 35.1224 21.4751 34.8031C21.7909 33.8452 22.1067 32.8873 22.4225 31.9294C22.7383 31.6101 22.7383 31.2908 22.7383 30.9715C22.4225 30.333 22.4225 29.6944 22.4225 29.3751C22.4225 28.7365 22.1067 28.4172 21.4751 28.4172C20.2118 27.7786 20.5276 26.1821 21.7909 26.1821C21.7909 24.5857 24.0015 24.5857 24.0015 26.1821C25.2648 26.1821 25.2648 27.14 24.6332 27.7786C23.6857 28.4172 23.3699 29.0558 23.0541 29.3751C23.0541 30.333 23.0541 30.6522 23.3699 30.333C24.3173 29.3751 24.949 28.4172 25.5806 27.7786C25.8964 27.4593 25.8964 27.14 25.8964 26.5014C26.2122 25.5435 25.8964 24.9049 24.949 24.5857C24.0015 23.6278 24.3173 22.0313 25.8964 22.0313C26.528 20.7541 28.1071 21.0734 28.1071 22.3506C29.0545 22.9892 29.0545 23.9471 28.1071 24.2664C26.8438 24.9049 26.528 25.8628 26.528 26.5014C26.528 26.8207 26.528 26.8207 26.528 26.5014C27.4754 25.5435 28.4229 24.9049 29.3703 24.2664C29.3703 23.9471 29.6861 23.9471 29.6861 23.6278C29.6861 22.3506 29.6861 22.0313 29.3703 22.0313C27.7912 21.0734 28.4229 19.1577 30.3177 19.4769C31.2651 17.8805 33.16 18.8384 32.5284 20.4348C33.7916 20.7541 33.4758 22.6699 32.2126 22.6699C31.2651 22.6699 30.9493 22.6699 30.6335 22.9892C30.0019 23.6278 30.0019 23.9471 30.3177 23.6278C31.581 23.3085 32.5284 22.6699 34.1074 22.0313C34.4232 21.712 34.739 21.0734 34.739 20.7541C34.739 19.4769 36.6339 19.4769 36.9497 20.4348C38.5288 20.1155 38.8446 22.0313 37.5813 22.6699C37.5813 23.9471 36.0023 24.2664 35.6865 23.3085C35.0549 22.6699 35.0549 22.3506 33.7916 22.6699C32.5284 22.9892 31.2651 23.6278 30.0019 24.5857C32.2126 24.9049 32.8442 24.5857 33.16 23.9471C33.4758 22.6699 35.3707 22.9892 35.0549 24.2664C36.6339 24.5857 36.3181 25.8628 35.0549 26.1821C35.3707 27.4593 33.4758 27.4593 33.16 26.5014C32.2126 24.2664 29.0545 24.5857 26.8438 27.14C26.528 27.4593 26.528 27.7786 27.1596 27.7786C28.4229 27.4593 29.0545 26.5014 29.3703 25.8628C29.6861 25.2242 30.9493 24.9049 31.2651 26.1821C32.8442 25.8628 32.8442 28.0979 31.2651 28.0979C31.581 28.7365 30.0019 29.3751 29.6861 28.7365C28.7387 27.4593 26.2122 27.7786 24.949 29.0558C24.3173 30.0137 23.6857 30.9715 23.6857 31.6101C24.6332 31.2908 25.2648 30.9715 25.2648 30.0137C25.5806 28.7365 27.1596 28.0979 27.4754 29.0558C29.3703 29.0558 29.3703 30.6522 28.1071 31.2908C28.4229 32.2487 26.8438 32.8873 26.528 32.2487C25.5806 31.2908 23.6857 31.6101 22.7383 33.2066C22.1067 33.8452 22.1067 34.8031 21.7909 35.761C22.7383 35.4417 23.3699 34.8031 23.0541 33.8452C23.0541 33.5259 23.0541 33.2066 23.3699 32.8873C23.6857 32.2487 24.6332 32.2487 24.949 32.8873C26.2122 31.9294 27.4754 33.8452 26.2122 34.4838C26.8438 35.4417 25.5806 36.7188 24.6332 36.0802C24.0015 35.761 23.6857 35.4417 23.3699 35.761C22.1067 36.0802 21.1593 37.0381 21.1593 37.996C21.1593 38.6346 20.8434 39.2732 20.8434 40.2311C21.7909 39.5925 22.1067 39.2732 21.7909 38.6346C21.7909 37.996 21.4751 37.6767 21.7909 37.3574C21.7909 36.7188 22.4225 36.7188 23.0541 37.0381C24.3173 36.0802 25.5806 37.0381 24.6332 38.3153C25.2648 38.9539 24.949 39.5925 24.3173 39.9118C23.6857 39.9118 23.0541 39.9118 22.7383 39.9118C22.4225 39.5925 22.4225 39.5925 22.1067 39.9118C21.1593 40.5504 20.8434 41.189 20.8434 41.8275C20.8434 42.4661 20.8434 43.1047 20.8434 44.0626C20.8434 44.7012 21.1593 44.7012 21.4751 44.0626C21.7909 43.424 21.7909 42.7854 21.4751 42.4661C20.8434 41.189 21.7909 40.2311 22.7383 40.5504C24.3173 39.5925 25.5806 40.8697 24.6332 42.1468C25.5806 42.4661 24.949 43.7433 24.0015 43.424C23.0541 43.424 22.4225 43.424 21.7909 44.0626C21.1593 44.7012 20.8434 45.3398 21.1593 47.2556C21.4751 49.1713 21.7909 49.8099 22.1067 49.1713C22.4225 48.2134 22.4225 47.5748 22.1067 47.5748C20.8434 46.2977 21.1593 45.0205 22.4225 45.0205C23.0541 43.424 24.949 44.0626 24.949 45.3398C25.8964 45.6591 25.8964 47.5748 24.6332 47.5748C23.6857 47.5748 23.3699 47.8941 23.0541 48.5327C22.4225 49.4906 22.4225 50.1292 22.7383 51.4064C24.0015 53.6414 24.6332 54.5993 24.6332 53.9607C24.6332 53.0028 24.6332 52.6836 24.3173 52.3643C22.7383 51.0871 23.0541 49.8099 24.3173 49.8099C24.949 47.8941 26.8438 48.5327 26.8438 50.1292C28.1071 50.4485 27.7912 51.7257 26.528 52.3643C25.5806 53.0028 25.2648 53.3221 24.949 53.9607C24.949 54.5993 25.2648 54.9186 25.8964 55.5572C26.528 56.1958 27.1596 56.8344 27.7912 57.1537Z" fill="#8C9F33"/>
<path fill-rule="evenodd" clip-rule="evenodd" d="M57.4773 58.1116C57.7931 57.7923 57.7931 57.1537 57.4773 57.1537C57.7931 56.5151 58.4247 56.1958 58.7405 55.8765C56.8456 55.5572 56.8456 53.0029 58.1089 51.4064C58.1089 51.7257 58.1089 52.045 58.1089 52.045C57.7931 52.6836 58.1089 53.0029 58.4247 53.3221C59.0563 54.28 59.3721 54.9186 59.0563 55.2379C59.0563 55.5572 59.0563 55.5572 59.0563 55.5572C59.3721 54.9186 59.6879 54.5993 60.0037 54.28C58.7405 54.28 58.1089 51.7257 58.7405 50.1292C58.7405 50.4485 58.7405 50.4485 58.7405 50.7678C58.7405 51.4064 59.0563 51.7257 59.3721 52.045C60.0037 52.6836 60.3195 53.3221 60.0037 53.9607C60.3195 53.6414 60.6354 53.3221 60.9512 52.6836H60.6354C59.3721 52.6836 58.7405 50.1292 59.3721 48.5327C59.6879 48.5327 59.6879 48.852 59.6879 49.1713C59.6879 49.8099 60.0037 50.1292 60.3195 50.4485C60.6354 51.0871 60.9512 51.7257 60.9512 52.3643C60.9512 52.3643 60.9512 52.3643 60.9512 52.6836C61.267 52.045 61.5828 51.7257 61.5828 51.4064C61.5828 51.0871 61.5828 51.0871 61.5828 51.0871C60.0037 51.0871 59.3721 48.5327 60.0037 46.9363C60.0037 47.2556 60.0037 47.2556 60.0037 47.5749C60.3195 48.2134 60.6354 48.5327 60.9512 48.852C61.267 49.4906 61.5828 49.8099 61.5828 50.7678C61.5828 50.7678 61.5828 50.7678 61.8986 51.0871C61.8986 50.4485 62.2144 50.1292 62.5302 49.4906H62.2144C60.9512 49.4906 60.0037 47.2556 60.3195 45.6591C60.6354 45.6591 60.6354 45.9784 60.6354 46.2977C60.6354 46.617 60.9512 46.9363 61.5828 47.2556C62.2144 47.8941 62.5302 48.2134 62.2144 48.852C62.5302 49.1713 62.5302 49.1713 62.5302 49.1713C62.846 48.852 62.846 48.2134 63.1618 47.5749C61.8986 47.8941 60.6354 45.6591 60.6354 44.0626C60.9512 44.0626 60.9512 44.3819 60.9512 44.7012C61.267 45.0205 61.5828 45.3398 61.8986 45.6591C62.5302 45.9784 63.1618 46.617 63.1618 47.2556C63.4776 46.9363 63.4776 46.2977 63.4776 45.6591C62.2144 45.9784 60.9512 43.7433 60.9512 41.8276C60.9512 42.1468 61.267 42.4661 61.267 42.4661C61.5828 43.1047 61.8986 43.424 62.2144 43.424C62.846 44.0626 63.1618 44.3819 63.4776 45.0205C63.4776 45.3398 63.4776 45.3398 63.4776 45.3398C63.7934 44.7012 63.7934 44.3819 63.7934 43.7433C63.7934 43.424 63.7934 43.424 63.7934 43.424C62.5302 44.0626 60.9512 42.1468 60.9512 40.2311C60.9512 40.2311 60.9512 40.5504 61.267 40.8697C61.5828 41.189 61.8986 41.5083 62.2144 41.5083C63.1618 41.8276 63.4776 42.4661 63.7934 43.1047C63.7934 43.1047 63.7934 43.1047 63.7934 43.424C63.7934 42.7854 63.7934 42.1468 63.7934 41.5083C63.7934 41.5083 63.7934 41.5083 63.4776 41.5083C62.5302 42.1468 60.6354 40.2311 60.3195 38.6346C60.6354 38.6346 60.6354 38.9539 60.9512 38.9539C61.267 39.5925 61.5828 39.5925 61.8986 39.9118C62.846 39.9118 63.1618 40.5504 63.4776 41.189H63.7934C63.7934 40.8697 63.7934 40.2311 63.7934 39.9118C63.7934 39.5925 63.7934 39.5925 63.7934 39.5925C62.5302 40.5504 60.3195 38.9539 60.0037 37.0381C60.0037 37.0381 60.3195 37.0381 60.6354 37.3574C60.9512 37.996 61.267 37.996 61.8986 37.996C62.5302 38.3153 63.1618 38.6346 63.4776 39.2732C63.4776 39.2732 63.4776 39.2732 63.7934 39.2732C63.4776 38.9539 63.4776 38.3153 63.4776 37.996C63.4776 37.996 63.1618 37.996 63.1618 37.6767C62.2144 38.9539 60.0037 37.0381 59.3721 35.1224C59.3721 35.1224 59.6879 35.4417 60.0037 35.761C60.3195 36.0803 60.6354 36.3995 61.267 36.3995C62.2144 36.3995 62.846 36.7188 63.1618 37.3574C63.1618 37.3574 63.1618 37.3574 63.1618 37.6767C63.1618 37.0381 63.1618 36.3995 62.846 36.0803C62.846 35.761 62.846 35.761 62.846 35.761C61.8986 37.0381 59.3721 35.4417 58.4247 33.5259C58.7405 33.8452 59.0563 33.8452 59.0563 34.1645C59.6879 34.4838 60.0037 34.4838 60.6354 34.4838C61.267 34.4838 61.8986 34.8031 62.5302 35.4417C62.5302 35.4417 62.5302 35.4417 62.846 35.4417C62.5302 35.1224 62.2144 34.4838 62.2144 33.8452H61.8986C61.267 35.1224 58.7405 34.1645 57.4773 32.2487C57.7931 32.2487 58.1089 32.568 58.4247 32.568C58.7405 32.8873 59.3721 32.8873 59.6879 32.8873C60.6354 32.8873 61.267 32.8873 61.8986 33.5259C61.5828 33.2066 61.5828 32.568 61.267 32.2487C60.6354 33.5259 57.7931 32.568 56.8456 30.6523C57.1615 30.6523 57.1615 30.9715 57.4773 30.9715C58.1089 31.2908 58.4247 31.2908 59.0563 31.2908C59.6879 31.2908 60.6354 31.2908 60.9512 31.9294C60.9512 31.6101 60.6354 30.9715 60.3195 30.6523C59.6879 31.6101 57.1615 30.9715 55.8982 29.6944C56.214 29.6944 56.214 29.6944 56.5298 29.6944C57.1615 30.0137 57.4773 30.0137 58.1089 30.0137C58.7405 29.6944 59.3721 29.6944 60.0037 30.0137C59.6879 29.6944 59.6879 29.6944 59.3721 29.3751C59.3721 29.3751 59.3721 29.3751 59.0563 29.3751C58.4247 30.333 55.8982 29.6944 54.635 28.4172C54.9508 28.4172 54.9508 28.4172 55.2666 28.4172C55.8982 28.7365 56.214 28.7365 56.8456 28.7365C57.4773 28.4172 58.4247 28.4172 58.7405 29.0558C59.0563 29.0558 59.0563 29.0558 59.0563 29.0558C58.7405 28.7365 58.4247 28.0979 58.1089 27.7786C57.7931 27.7786 57.7931 27.7786 57.4773 27.7786C57.1615 28.7365 54.635 28.7365 53.3717 27.4593C53.3717 27.4593 53.6876 27.4593 54.0034 27.4593C54.3192 27.7786 54.9508 27.7786 55.2666 27.4593C56.214 27.14 56.8456 27.14 57.1615 27.4593C57.4773 27.7786 57.4773 27.4593 57.7931 27.4593C57.7931 27.4593 57.4773 27.14 57.1615 26.8207C56.8456 26.8207 56.8456 26.8207 56.8456 26.8207C55.8982 27.4593 53.0559 27.4593 52.4243 26.8207C52.7401 26.8207 53.0559 26.8207 53.3717 26.8207C53.6876 26.8207 54.0034 26.5014 54.3192 26.5014C54.9508 26.1821 55.8982 26.1821 56.214 26.5014C56.5298 26.5014 56.8456 26.5014 56.8456 26.5014C56.5298 26.1821 56.214 25.8628 55.8982 25.5435C55.8982 25.8628 55.5824 25.8628 55.5824 25.8628C54.635 26.5014 52.1085 26.5014 51.4769 25.8628C51.4769 25.8628 51.7927 25.8628 52.1085 25.8628C52.4243 25.8628 52.7401 25.5435 53.0559 25.2242C53.6876 24.905 54.635 25.2242 55.2666 25.2242L55.5824 25.5435C55.2666 24.905 54.635 24.5857 54.0034 24.2664C53.6876 25.2242 51.1611 25.5435 49.8978 24.905C49.8978 24.5857 50.2137 24.5857 50.5295 24.905C50.8453 24.905 51.1611 24.5857 51.7927 24.2664C52.4243 23.9471 53.0559 23.9471 53.6876 24.2664C53.6876 24.2664 53.6876 24.2664 53.6876 23.9471C53.3717 23.9471 53.0559 23.6278 52.7401 23.3085C52.4243 23.3085 52.4243 23.3085 52.4243 23.3085C52.1085 24.5857 49.582 24.5857 48.003 23.6278C48.3188 23.6278 48.3188 23.6278 48.6346 23.6278C49.2662 23.9471 49.582 23.6278 49.8978 23.6278C50.8453 23.3085 51.4769 22.9892 52.1085 23.3085C52.1085 23.3085 52.1085 23.3085 52.4243 23.3085C52.1085 22.9892 51.7927 22.9892 51.4769 22.6699C51.4769 22.6699 51.4769 22.6699 51.1611 22.6699H50.8453C50.5295 23.3085 48.3188 23.3085 47.0556 22.6699C47.3714 22.6699 47.3714 22.6699 47.6872 22.9892C48.3188 22.9892 48.6346 22.6699 48.9504 22.6699C49.582 22.3506 50.2137 22.3506 50.5295 22.6699C50.8453 22.6699 50.8453 22.6699 50.8453 22.6699C50.8453 22.3506 50.5295 22.3506 50.5295 22.3506C49.8978 22.6699 48.9504 22.3506 48.3188 21.712C48.003 21.3927 47.6872 21.3927 47.0556 21.3927C46.7398 21.3927 46.424 21.3927 46.424 21.3927C48.003 20.4348 50.5295 20.7541 50.8453 22.3506C50.8453 22.3506 51.1611 22.3506 51.4769 22.3506C51.4769 22.0313 51.4769 22.0313 51.4769 22.0313C50.8453 22.0313 50.5295 21.3927 50.5295 20.7541C50.5295 20.1155 50.2137 19.7962 49.8978 19.4769L49.582 19.1577C51.1611 19.1577 52.7401 20.7541 51.7927 22.0313L52.1085 22.3506C52.4243 22.3506 52.7401 22.6699 53.0559 22.6699C52.7401 22.6699 52.7401 22.6699 52.7401 22.3506C52.4243 22.3506 52.1085 21.712 52.4243 21.0734C52.4243 20.7541 52.4243 20.1155 52.1085 19.7962V19.4769C53.3717 19.7962 54.3192 21.712 53.0559 22.6699C53.0559 22.6699 53.0559 22.6699 53.0559 22.9892C53.6876 23.3085 54.0034 23.6278 54.3192 23.6278C54.0034 22.9892 53.6876 22.6699 54.0034 21.712C54.3192 21.3927 54.3192 21.0734 54.0034 20.7541C54.0034 20.4348 53.6876 20.4348 53.6876 20.1155C55.2666 20.7541 55.8982 22.9892 54.635 23.6278V23.9471C54.9508 24.2664 55.5824 24.5857 55.8982 24.905C55.8982 24.905 55.8982 24.905 55.8982 24.5857C55.5824 24.2664 55.2666 23.6278 55.5824 22.9892C55.8982 22.3506 55.8982 22.0313 55.5824 21.3927C55.5824 21.3927 55.5824 21.0734 55.5824 20.7541C56.8456 21.712 57.4773 24.2664 56.214 24.905C56.214 24.905 56.214 24.905 56.214 25.2242C56.5298 25.5435 56.8456 25.5435 57.1615 25.8628V25.5435C56.8456 25.2242 56.8456 24.5857 57.1615 23.6278C57.4773 23.3085 57.4773 22.9892 57.1615 22.6699C57.1615 22.3506 57.1615 22.0313 57.1615 22.0313C58.4247 22.9892 58.7405 25.2242 57.4773 25.8628V26.1821C57.7931 26.5014 58.1089 26.8207 58.4247 27.14C58.1089 26.5014 58.1089 25.8628 58.4247 25.2242C58.7405 24.5857 58.7405 24.2664 58.7405 23.6278C58.7405 23.6278 58.4247 23.3085 58.7405 22.9892C60.0037 24.2664 60.3195 26.5014 58.7405 27.4593C59.0563 27.7786 59.3721 28.4172 59.6879 28.7365C59.3721 28.0979 59.3721 27.4593 60.0037 26.8207C60.3195 26.1821 60.3195 25.8628 60.3195 25.2242C60.3195 25.2242 60.0037 24.905 60.3195 24.5857C61.5828 25.8628 61.5828 28.4172 60.0037 29.0558C60.3195 29.3751 60.6354 30.0137 60.9512 30.333V30.0137C60.6354 29.3751 60.6354 28.7365 61.267 28.0979C61.5828 27.7786 61.8986 27.4593 61.5828 26.8207C61.5828 26.5014 61.5828 26.5014 61.5828 26.1821C63.1618 27.4593 62.846 30.0137 61.267 30.333C61.267 30.333 61.267 30.6523 60.9512 30.6523C61.267 30.9715 61.267 30.9715 61.267 31.2908C61.5828 31.6101 61.5828 31.6101 61.8986 31.9294V31.6101C61.8986 31.2908 61.8986 30.6523 62.5302 30.0137C62.846 29.6944 63.1618 29.3751 63.1618 29.0558C63.1618 28.7365 63.1618 28.4172 63.4776 28.4172C64.4251 29.6944 63.7934 31.9294 62.2144 31.9294C62.2144 31.9294 62.2144 32.2487 61.8986 32.2487C62.2144 32.8873 62.5302 33.2066 62.846 33.8452C62.846 33.5259 62.846 33.5259 62.846 33.5259C62.846 32.8873 62.846 32.2487 63.7934 31.9294C64.1093 31.6101 64.4251 31.2908 64.4251 30.6523C64.4251 30.333 64.4251 30.333 64.4251 30.0137C65.3725 31.6101 64.7409 33.5259 63.1618 33.8452C63.1618 33.8452 63.1618 33.8452 62.846 34.1645C63.1618 34.4838 63.1618 35.1224 63.4776 35.761C63.4776 35.4417 63.7934 35.4417 63.7934 35.4417C63.4776 34.8031 63.7934 34.1645 64.4251 33.8452C64.7409 33.5259 65.0567 33.2066 65.0567 32.8873C65.0567 32.568 65.0567 32.2487 65.3725 32.2487C66.0041 33.5259 65.3725 35.761 63.7934 35.761C63.7934 35.761 63.7934 35.761 63.4776 36.0803C63.7934 36.3995 63.7934 37.0381 64.1093 37.3574C64.1093 37.3574 64.1093 37.3574 64.1093 37.0381C64.1093 36.7188 64.4251 36.0803 65.0567 35.761C65.3725 35.4417 65.6883 35.1224 66.0041 34.8031C66.0041 34.4838 66.0041 34.4838 66.0041 34.1645C66.6357 35.761 65.6883 37.6767 64.4251 37.6767C64.1093 37.6767 64.1093 37.6767 64.1093 37.996C64.1093 38.3153 64.1093 38.6346 64.4251 39.2732V38.9539C64.4251 38.3153 64.7409 37.996 65.6883 37.6767C66.0041 37.6767 66.3199 37.3574 66.6357 37.0381C66.6357 36.7188 66.6357 36.3995 66.9515 36.3995C67.2673 37.996 66.0041 39.9118 64.4251 39.2732V39.5925C64.4251 40.2311 64.4251 40.8697 64.4251 41.5083C64.7409 41.5083 64.7409 41.5083 64.7409 41.189C64.7409 40.8697 65.0567 40.2311 66.0041 39.9118C66.3199 39.9118 66.6357 39.5925 66.9515 39.2732C66.9515 38.9539 66.9515 38.6346 67.2673 38.6346C67.5832 40.2311 66.3199 42.1468 64.7409 41.5083C64.7409 41.8276 64.7409 41.8276 64.4251 41.8276C64.4251 42.4661 64.4251 43.1047 64.4251 43.7433C64.7409 43.7433 64.7409 43.7433 64.7409 43.424C64.7409 43.1047 65.3725 42.4661 66.0041 42.4661C66.6357 42.1468 66.9515 41.8276 66.9515 41.5083C67.2673 41.5083 67.2673 41.189 67.2673 41.189C67.899 42.4661 66.3199 44.3819 64.7409 43.7433C64.7409 44.0626 64.7409 44.0626 64.4251 44.0626C64.4251 44.7012 64.4251 45.0205 64.1093 45.6591C64.4251 45.6591 64.4251 45.3398 64.7409 45.3398C64.7409 45.0205 65.0567 44.3819 66.0041 44.3819C66.3199 44.3819 66.9515 44.0626 66.9515 43.7433C67.2673 43.7433 67.2673 43.424 67.5832 43.424C67.5832 45.0205 66.0041 46.2977 64.7409 45.6591C64.4251 45.6591 64.4251 45.9784 64.1093 45.9784C64.1093 46.2977 64.1093 46.9363 63.7934 47.2556C64.1093 47.2556 64.1093 47.2556 64.4251 47.2556C64.4251 46.617 65.0567 46.2977 65.6883 46.2977C66.3199 46.2977 66.6357 46.2977 66.9515 45.9784C66.9515 45.6591 67.2673 45.6591 67.2673 45.3398C67.2673 47.2556 65.3725 48.5327 64.1093 47.5749C64.1093 47.5749 64.1093 47.5749 63.7934 47.8941C63.4776 48.2134 63.4776 48.852 63.1618 49.4906C63.4776 49.4906 63.4776 49.4906 63.4776 49.4906C63.7934 48.852 64.1093 48.5327 65.0567 48.5327C65.6883 48.5327 66.0041 48.2134 66.3199 47.8941C66.6357 47.8941 66.6357 47.5749 66.9515 47.5749C66.6357 49.4906 64.7409 50.7678 63.4776 49.8099C63.1618 49.8099 63.1618 49.8099 63.1618 49.8099C62.846 50.4485 62.846 50.7678 62.5302 51.0871C62.846 50.4485 63.4776 50.1292 64.4251 50.4485C65.0567 50.4485 65.3725 50.4485 65.6883 50.1292C66.0041 50.1292 66.0041 49.8099 66.3199 49.8099C66.0041 51.7257 63.7934 52.6836 62.5302 51.4064C62.5302 51.4064 62.5302 51.4064 62.2144 51.4064C62.2144 51.7257 61.8986 52.3643 61.8986 52.6836C62.2144 52.045 62.846 52.045 63.7934 52.3643C64.1093 52.3643 64.7409 52.3643 65.0567 52.045C65.3725 52.045 65.3725 51.7257 65.6883 51.7257C65.0567 53.6414 62.5302 54.28 61.5828 53.0029C61.267 53.3221 60.9512 53.9607 60.6354 54.28C60.9512 54.28 60.9512 54.28 60.9512 54.28C61.5828 53.6414 62.2144 53.6414 62.846 53.9607C63.4776 53.9607 63.7934 53.9607 64.1093 53.6414C64.4251 53.6414 64.7409 53.3221 64.7409 53.6414C64.1093 55.2379 61.8986 55.8765 60.9512 54.5993C60.6354 54.5993 60.6354 54.5993 60.6354 54.5993C60.3195 54.9186 60.3195 55.2379 60.0037 55.2379C60.3195 55.2379 60.9512 55.2379 61.5828 55.5572C61.8986 55.8765 62.5302 55.8765 62.846 55.5572C63.1618 55.5572 63.4776 55.2379 63.7934 55.5572C62.846 57.1537 60.3195 57.7923 59.0563 56.1958C58.7405 56.8344 58.1089 57.473 57.4773 58.1116Z" fill="#E4A108"/>
<path fill-rule="evenodd" clip-rule="evenodd" d="M42.3184 13.0911L43.5816 17.2419H48.0029L44.529 19.4769L45.7922 23.6278L42.3184 21.0734L38.8445 23.6278L40.1077 19.4769L36.6338 17.2419H41.0551L42.3184 13.0911Z" fill="#EEBC03"/>
<path fill-rule="evenodd" clip-rule="evenodd" d="M42.3184 3.51224L61.5828 16.9226L80.8471 30.0137L73.5835 51.7257L66.0041 73.1184H42.3184H18.6328L11.0533 51.7257L3.78973 30.0137L23.0541 16.9226L42.3184 3.51224ZM18.9486 60.3466C17.3695 60.6659 16.1063 61.6238 15.7905 62.901C17.6853 62.5817 19.5802 62.901 21.1592 63.8589C23.0541 65.136 24.0015 65.136 24.6331 64.1782C24.9489 63.5396 24.3173 62.5817 23.0541 61.6238C22.4225 60.9852 22.4225 60.3466 23.0541 59.708L24.9489 58.1116C21.475 56.5151 18.0011 56.1958 15.4747 56.8344C17.0537 57.7923 18.0011 59.0695 18.9486 60.3466ZM65.6883 60.3466C67.5831 60.6659 68.5306 61.6238 69.1622 62.901C66.9515 62.5817 65.0567 62.901 63.4776 63.8589C61.8986 65.136 60.6353 65.136 60.0037 64.1782C59.6879 63.5396 60.3195 62.5817 61.5828 61.6238C62.2144 60.9852 62.2144 60.3466 61.5828 59.708L59.6879 58.1116C63.4776 56.5151 66.6357 56.1958 69.1622 56.8344C67.5831 57.7923 66.6357 59.0695 65.6883 60.3466ZM58.1089 62.901L59.6879 64.4975C60.0037 64.8167 60.6353 65.136 61.267 65.136C61.8986 65.136 62.846 64.8167 63.7934 64.1782C64.4251 63.5396 65.3725 63.2203 66.0041 63.2203C66.9515 62.901 67.899 62.901 68.8464 63.2203H69.1622L66.0041 73.1184H42.3184H18.6328L15.4747 63.2203H15.7905C16.7379 62.901 17.6853 62.901 18.6328 63.2203C19.2644 63.2203 20.2118 63.5396 20.8434 64.1782C21.7908 64.8167 22.7383 65.136 23.3699 65.136C24.0015 65.136 24.6331 64.8167 24.9489 64.4975L26.528 62.901C28.107 63.8589 29.6861 64.8167 31.5809 65.4553C34.739 66.7325 38.5287 67.6904 42.3184 67.6904C46.1081 67.6904 49.8978 66.7325 53.0559 65.4553C54.9508 64.8167 56.5298 63.8589 58.1089 62.901ZM69.478 62.901L69.1622 62.5817C69.1622 61.9431 68.5306 61.3045 67.899 60.9852C67.5831 60.6659 66.9515 60.3466 66.3199 60.0273C66.6357 59.708 66.9515 59.0695 67.5831 58.7502C67.899 58.1116 68.8464 57.7923 69.478 57.1537L70.1096 56.8344H69.478C67.899 56.1958 66.3199 56.1958 64.7409 56.1958C63.1618 56.5151 61.5828 56.8344 59.6879 57.7923H59.3721L56.5298 55.2379C56.214 54.9186 55.5824 54.28 54.635 55.2379C53.0559 56.5151 51.1611 57.7923 48.9504 58.4309C47.0556 59.3887 44.5291 59.708 42.3184 59.708C40.1078 59.708 37.8971 59.3887 35.6864 58.4309C33.4758 57.7923 31.5809 56.5151 30.0019 55.2379C29.0545 54.28 28.4228 54.9186 28.4228 55.2379L25.2647 57.7923H24.9489C23.3699 56.8344 21.475 56.5151 19.896 56.1958C18.3169 56.1958 16.7379 56.1958 15.1589 56.8344H14.5272L15.1589 57.1537C16.1063 57.7923 16.7379 58.1116 17.3695 58.7502C17.6853 59.0695 18.0011 59.708 18.3169 60.0273C17.6853 60.3466 17.0537 60.6659 16.7379 60.9852C16.1063 61.3045 15.4747 61.9431 15.4747 62.5817L15.1589 62.901L11.3691 51.7257L4.10554 30.333L23.3699 16.9226L42.3184 3.83153L61.267 16.9226L80.5313 30.333L73.2677 51.7257L69.478 62.901ZM61.267 59.708C57.1615 64.1782 50.2137 67.3711 42.3184 67.3711C34.4232 67.3711 27.4754 64.1782 23.6857 59.708L28.4228 55.5572C28.4228 55.5572 29.0545 54.9186 29.6861 55.5572C33.16 58.4309 37.5813 60.0273 42.3184 60.0273C47.0556 60.0273 51.4769 58.4309 54.9508 55.5572C55.5824 54.9186 56.214 55.5572 56.214 55.5572L61.267 59.708Z" fill="black"/>
<path fill-rule="evenodd" clip-rule="evenodd" d="M61.5827 59.7081L59.6879 58.1116C63.1618 56.5151 66.6357 56.1958 69.1621 56.8344C67.5831 57.7923 66.6357 59.0695 65.6882 60.3467C67.2673 60.6659 68.5305 61.6238 69.1621 62.901C66.9515 62.5817 65.0566 62.901 63.4776 63.8589C61.8985 65.1361 60.6353 65.1361 60.0037 64.1782C59.6879 63.5396 60.3195 62.5817 61.5827 61.6238C62.2143 60.9852 62.2143 60.3467 61.5827 59.7081ZM52.7401 44.0626L44.2132 48.8521V48.5328L52.7401 44.0626V43.7434L42.3184 49.1714L31.8967 43.7434V44.0626L40.4235 48.5328L31.8967 44.0626L31.2651 45.0205L40.4235 50.1292H40.7393H40.4235L35.0548 53.3222L36.0022 54.2801L42.3184 50.7678L48.6346 54.2801L49.582 53.3222L44.2132 50.1292H43.8974H44.2132L53.3717 45.0205L52.7401 44.0626ZM43.8974 48.8521L42.95 49.4906V49.1714L43.8974 48.5328V48.8521ZM40.7393 48.5328L41.6868 49.1714V49.4906L40.7393 48.8521V48.5328ZM18.3169 52.045C18.0011 52.6836 18.3169 53.0029 18.9485 53.0029C18.9485 53.3222 19.2643 53.3222 18.9485 53.3222C18.6327 53.6415 18.9485 54.5994 19.2643 54.5994C20.2117 54.5994 20.5276 53.9608 20.2117 53.6415C19.8959 53.6415 20.2117 53.3222 20.2117 53.6415C20.5276 53.6415 21.1592 53.6415 21.1592 53.3222C21.475 52.6836 21.1592 52.6836 20.5276 52.6836C20.2117 52.3643 20.2117 52.045 20.5276 52.045C20.8434 52.3643 21.1592 52.3643 21.1592 51.7257C21.1592 51.0871 20.5276 50.7678 20.2117 51.0871C19.8959 51.0871 19.8959 51.0871 19.8959 51.4064C19.8959 51.7257 19.5801 51.7257 19.2643 51.4064C18.9485 51.4064 18.3169 51.7257 18.3169 52.045ZM37.897 21.3927C37.5812 20.7542 37.2654 20.7542 36.9496 20.7542C36.6338 21.0735 36.6338 21.0735 36.6338 20.7542C36.6338 20.4349 36.0022 20.1156 35.6864 20.1156C35.0548 20.4349 35.3706 21.0735 35.6864 21.0735C36.0022 21.0735 36.0022 21.3927 35.6864 21.3927C35.3706 21.3927 35.0548 21.712 35.0548 22.0313C35.3706 22.3506 35.6864 22.3506 36.0022 22.0313C36.318 22.0313 36.6338 22.0313 36.318 22.3506C36.0022 22.3506 35.6864 22.6699 36.0022 22.9892C36.318 23.3085 36.9496 23.3085 37.2654 22.9892C37.2654 22.6699 37.2654 22.6699 37.2654 22.3506C36.9496 22.3506 37.2654 22.0313 37.2654 22.0313C37.897 22.0313 37.897 21.712 37.897 21.3927ZM35.6864 25.2243C35.6864 24.5857 35.0548 24.5857 34.739 24.5857C34.739 24.5857 34.4231 24.5857 34.4231 24.2664C34.739 23.9471 34.4231 23.3085 33.7915 23.6278C33.1599 23.6278 33.1599 24.2664 33.4757 24.2664C33.7915 24.5857 33.7915 24.5857 33.4757 24.5857C33.1599 24.5857 32.8441 24.5857 32.8441 24.905C32.8441 25.5436 33.1599 25.5436 33.7915 25.5436C33.7915 25.2243 34.1073 25.5436 33.7915 25.5436C33.4757 25.8629 33.1599 25.8629 33.4757 26.1822C33.4757 26.8208 34.1073 26.8208 34.4231 26.5015L34.739 26.1822C34.4231 25.8629 34.739 25.8629 34.739 25.8629C35.3706 25.8629 35.6864 25.5436 35.6864 25.2243ZM31.5809 19.477C30.9492 19.1577 30.6334 19.477 30.3176 19.7963C30.3176 20.1156 30.3176 20.1156 30.0018 20.1156C29.686 19.7963 29.0544 19.7963 29.0544 20.4349C28.7386 21.0735 29.686 21.3927 29.686 21.0735C30.0018 20.7542 30.3176 21.0735 30.0018 21.0735C29.686 21.3927 29.686 22.0313 30.3176 22.0313C30.9492 22.3506 30.9492 22.0313 30.9492 21.3927C31.2651 21.0735 31.5809 21.0735 31.5809 21.3927C31.2651 22.0313 31.5809 22.0313 32.2125 22.3506C32.8441 22.3506 32.8441 21.712 32.8441 21.3927C32.5283 21.0735 32.5283 21.0735 32.2125 20.7542C32.2125 20.7542 31.8967 20.7542 32.2125 20.4349C32.5283 20.1156 31.8967 19.477 31.5809 19.477ZM27.1595 21.712C26.2121 21.3927 25.8963 22.0313 25.8963 22.3506C25.8963 22.6699 25.8963 22.6699 25.5805 22.3506C25.5805 22.3506 24.6331 22.3506 24.6331 22.9892C24.9489 23.6278 25.2647 23.9471 25.5805 23.6278C25.8963 23.3085 25.8963 23.3085 25.8963 23.6278C25.5805 23.9471 25.5805 24.2664 26.2121 24.5857C26.5279 24.5857 26.8437 24.2664 26.8437 23.6278C26.8437 23.3085 27.1595 23.3085 27.1595 23.6278C27.1595 23.9471 27.1595 24.2664 27.7912 24.2664C28.4228 24.2664 28.4228 23.6278 28.107 23.3085C28.107 22.9892 28.107 22.9892 27.7912 22.9892C27.4754 22.9892 27.4754 22.9892 27.4754 22.6699C27.7912 22.0313 27.4754 21.712 27.1595 21.712ZM31.8967 26.8208C31.8967 26.1822 31.2651 26.1822 30.9492 26.5015C30.9492 26.5015 30.6334 26.5015 30.9492 26.1822C30.9492 25.8629 30.3176 25.5436 30.0018 25.5436C29.3702 25.8629 29.3702 26.5015 29.686 26.5015C30.0018 26.5015 30.0018 26.8208 30.0018 26.8208C29.686 26.5015 29.0544 26.8208 29.3702 27.14C29.3702 27.4593 29.686 27.7786 30.0018 27.4593C30.3176 27.4593 30.6334 27.4593 30.3176 27.7786C30.0018 27.7786 29.686 27.7786 30.0018 28.4172C30.3176 28.7365 30.9492 28.7365 30.9492 28.4172C31.2651 28.0979 31.2651 28.0979 31.2651 27.7786C31.2651 27.7786 31.2651 27.7786 31.2651 27.4593C31.8967 27.4593 32.2125 27.14 31.8967 26.8208ZM22.7382 25.2243C22.1066 25.2243 22.1066 25.8629 22.1066 26.1822C22.1066 26.5015 22.1066 26.5015 21.7908 26.5015C21.475 26.5015 20.8434 26.8208 21.1592 27.4593C21.475 28.0979 22.1066 27.7786 22.1066 27.7786C22.1066 27.4593 22.4224 27.4593 22.4224 27.4593C22.1066 27.7786 22.4224 28.4172 23.054 28.0979C23.3698 28.0979 23.3698 27.7786 23.3698 27.4593C23.054 27.14 23.3698 26.8208 23.6856 27.14C23.6856 27.4593 24.0015 27.7786 24.3173 27.4593C24.9489 27.14 24.6331 26.8208 24.3173 26.5015C24.3173 26.1822 24.0015 26.1822 24.0015 26.1822C23.6856 26.5015 23.6856 26.1822 23.6856 25.8629C23.6856 25.5436 23.054 25.2243 22.7382 25.2243ZM28.4228 30.0137C28.107 29.3751 27.7912 29.3751 27.4754 29.6944C27.1595 29.6944 27.1595 29.6944 27.1595 29.3751C27.1595 29.0558 26.5279 28.7365 26.2121 29.0558C25.5805 29.3751 25.8963 30.0137 26.2121 30.0137C26.5279 30.0137 26.5279 30.0137 26.2121 30.0137C25.8963 30.0137 25.5805 30.333 25.8963 30.9716C25.8963 31.2909 26.2121 31.2909 26.5279 30.9716C26.8437 30.6523 27.1595 30.9716 26.8437 30.9716C26.5279 31.2909 26.5279 31.6102 26.8437 31.9295C27.1595 32.568 27.4754 32.2488 27.7912 31.6102V31.2909C27.7912 31.2909 27.7912 30.9716 28.107 30.9716C28.4228 30.6523 28.4228 30.333 28.4228 30.0137ZM19.5801 30.0137C18.6327 30.333 18.6327 30.9716 18.9485 31.2909V31.6102C18.3169 31.2909 18.0011 31.9295 18.3169 32.568C18.6327 33.2066 19.2643 32.8873 19.2643 32.568C19.2643 32.2488 19.5801 32.2488 19.5801 32.568C19.5801 32.8873 19.8959 33.2066 20.2117 33.2066C20.8434 32.8873 20.8434 32.568 20.5276 31.9295C20.2117 31.9295 20.5276 31.6102 20.8434 31.6102C20.8434 32.2488 21.1592 32.2488 21.7908 31.9295C22.1066 31.6102 21.7908 30.9716 21.475 30.6523C21.1592 30.6523 21.1592 30.6523 20.8434 30.6523C20.8434 30.9716 20.5276 30.9716 20.5276 30.6523C20.2117 30.0137 19.8959 30.0137 19.5801 30.0137ZM26.2121 33.2066C25.8963 32.568 25.2647 32.8873 24.9489 33.2066C24.9489 33.2066 24.9489 33.2066 24.6331 33.2066C24.6331 32.8873 24.0015 32.568 23.6856 32.8873C23.3698 33.5259 23.6856 33.8452 24.0015 33.8452C24.3173 33.8452 24.3173 33.8452 24.3173 34.1645C24.0015 34.1645 23.6856 34.4838 24.0015 34.8031C24.3173 35.1224 24.3173 35.1224 24.9489 34.8031C24.9489 34.4838 25.2647 34.4838 25.2647 34.8031C24.9489 35.1224 24.6331 35.4417 25.2647 35.761C25.5805 36.0803 25.8963 35.4417 26.2121 35.1224C26.2121 34.8031 26.2121 34.8031 25.8963 34.4838C25.8963 34.4838 25.8963 34.4838 25.8963 34.1645C26.5279 33.8452 26.5279 33.5259 26.2121 33.2066ZM17.0537 35.1224C16.422 35.761 16.7378 36.3996 17.0537 36.7189C17.3695 36.7189 17.3695 37.0382 17.0537 37.0382C16.7378 37.0382 16.422 37.9961 17.0537 38.3153C17.6853 38.6346 18.0011 37.9961 18.0011 37.6768C18.0011 37.3575 18.0011 37.3575 18.0011 37.6768C18.3169 37.9961 18.9485 38.3153 19.2643 37.9961C19.5801 37.3575 19.5801 37.3575 18.9485 36.7189C18.6327 36.7189 18.6327 36.0803 18.9485 36.3996C19.2643 36.7189 19.5801 36.7189 19.8959 36.3996C20.2117 35.761 19.8959 35.1224 19.2643 35.1224C18.9485 35.1224 18.9485 35.1224 18.6327 35.4417H18.3169C18.0011 34.8031 17.3695 34.8031 17.0537 35.1224ZM24.3173 37.0382C23.6856 36.7189 23.3698 37.0382 23.054 37.3575C23.054 37.3575 23.054 37.6768 22.7382 37.3575C22.7382 37.0382 22.1066 37.0382 21.7908 37.6768C21.475 38.3153 22.1066 38.6346 22.4224 38.3153C22.4224 38.3153 22.7382 38.3153 22.4224 38.3153C22.4224 38.6346 22.1066 38.9539 22.4224 39.2732C23.054 39.5925 23.054 39.2732 23.3698 38.9539C23.3698 38.6346 23.6856 38.6346 23.6856 38.6346C23.3698 39.2732 23.3698 39.5925 24.0015 39.5925C24.6331 39.9118 24.6331 39.2732 24.6331 38.9539C24.6331 38.6346 24.6331 38.3153 24.3173 38.3153C24.3173 38.3153 24.3173 38.3153 24.3173 37.9961C24.6331 37.6768 24.3173 37.0382 24.3173 37.0382ZM24.0015 40.8697C23.6856 40.2311 23.054 40.8697 23.054 41.189H22.7382C22.4224 40.8697 21.7908 40.8697 21.7908 41.189C21.475 41.8276 22.1066 42.1469 22.1066 42.1469C22.4224 41.8276 22.4224 42.1469 22.4224 42.1469C22.1066 42.4662 22.1066 42.7855 22.4224 43.1048C22.7382 43.1048 23.054 43.1048 23.3698 42.4662C23.3698 42.1469 23.6856 42.1469 23.6856 42.4662C23.3698 43.1048 23.3698 43.1048 24.0015 43.4241C24.6331 43.4241 24.6331 42.7855 24.6331 42.4662C24.6331 42.4662 24.6331 42.1469 24.3173 42.1469V41.8276C24.6331 41.189 24.3173 40.8697 24.0015 40.8697ZM16.1062 40.8697C15.4746 41.5083 15.7904 42.1469 16.1062 42.1469C16.422 42.4662 16.422 42.4662 16.1062 42.4662C15.7904 42.7855 15.7904 43.4241 16.1062 43.7434C17.0537 44.0626 17.3695 43.4241 17.0537 43.1048C17.0537 43.1048 17.0537 42.7855 17.3695 43.1048C17.3695 43.4241 18.0011 43.4241 18.3169 43.1048C18.6327 42.7855 18.3169 42.4662 17.6853 42.1469C17.6853 42.1469 17.6853 41.8276 18.0011 41.8276C18.3169 42.1469 18.6327 42.1469 18.9485 41.5083C18.9485 40.8697 18.6327 40.5504 18.0011 40.5504C17.6853 40.5504 17.6853 40.8697 17.6853 40.8697C17.3695 41.189 17.3695 41.189 17.0537 40.8697C16.7378 40.5504 16.422 40.5504 16.1062 40.8697ZM23.6856 44.3819C23.054 44.3819 22.7382 44.7012 22.7382 45.3398C22.7382 45.3398 22.7382 45.6591 22.4224 45.3398C22.1066 45.3398 21.475 45.6591 21.475 46.2977C21.7908 46.9363 22.4224 46.9363 22.4224 46.617C22.7382 46.2977 22.7382 46.617 22.7382 46.617C22.7382 46.9363 22.7382 47.5749 23.054 47.5749C23.6856 47.5749 23.6856 47.2556 23.6856 46.617C23.6856 46.2977 24.0015 46.2977 24.0015 46.2977C24.0015 46.9363 24.3173 47.2556 24.9489 47.2556C25.5805 46.9363 25.2647 46.2977 25.2647 45.9784C24.9489 45.6591 24.9489 45.6591 24.6331 45.6591C24.3173 45.6591 24.3173 45.6591 24.3173 45.3398C24.6331 44.7012 24.0015 44.3819 23.6856 44.3819ZM16.7378 46.9363C16.1062 47.5749 16.7378 47.8942 17.0537 48.2135C17.3695 48.2135 17.3695 48.5328 17.0537 48.5328C16.7378 48.8521 16.7378 49.4906 17.3695 49.8099C18.0011 50.1292 18.3169 49.4906 18.3169 49.1714C18.0011 48.8521 18.3169 48.8521 18.3169 48.8521C18.6327 49.1714 19.2643 49.1714 19.2643 48.8521C19.5801 48.2135 19.5801 48.2135 18.9485 47.8942C18.6327 47.8942 18.6327 47.2556 18.6327 47.5749C19.2643 47.5749 19.5801 47.5749 19.5801 46.9363C19.8959 46.2977 19.2643 45.9784 18.6327 46.2977C18.6327 46.2977 18.3169 46.2977 18.3169 46.617C18.3169 46.617 18.0011 46.9363 17.6853 46.617C17.3695 46.2977 16.7378 46.617 16.7378 46.9363ZM25.5805 49.1714C24.9489 49.1714 24.6331 49.4906 24.9489 50.1292C24.9489 50.1292 24.6331 50.4485 24.6331 50.1292C24.3173 49.8099 23.6856 50.1292 23.6856 50.7678C24.0015 51.4064 24.3173 51.4064 24.6331 51.4064C24.6331 51.0871 24.9489 51.0871 24.6331 51.4064C24.6331 51.4064 24.6331 52.045 25.2647 52.045C25.5805 52.045 25.8963 51.7257 25.5805 51.0871C25.5805 51.0871 25.8963 50.7678 25.8963 51.0871C25.8963 51.4064 26.2121 51.7257 26.5279 51.7257C27.1595 51.4064 27.1595 50.7678 26.8437 50.4485H26.5279C26.2121 50.4485 26.2121 50.1292 26.2121 50.1292C26.2121 49.4906 25.8963 49.1714 25.5805 49.1714ZM23.054 59.7081L24.9489 58.1116C21.475 56.5151 18.0011 56.1958 15.4746 56.8344C17.0537 57.7923 18.0011 59.0695 18.9485 60.3467C17.3695 60.6659 16.1062 61.6238 15.4746 62.901C17.6853 62.5817 19.5801 62.901 21.1592 63.8589C22.7382 65.1361 24.0015 65.1361 24.6331 64.1782C24.9489 63.5396 24.3173 62.5817 23.054 61.6238C22.4224 60.9852 22.4224 60.3467 23.054 59.7081ZM60.9511 59.7081C57.1614 64.1782 50.2136 67.3711 42.3184 67.3711C34.4231 67.3711 27.4754 64.1782 23.6856 59.7081L28.4228 55.5572C28.4228 55.5572 29.0544 54.9187 29.686 55.5572C33.1599 58.4309 37.5812 60.0274 42.3184 60.0274C47.0555 60.0274 51.4768 58.4309 54.9507 55.5572C55.5824 54.9187 56.214 55.5572 56.214 55.5572L60.9511 59.7081Z" fill="#FEFEFE"/>
<path fill-rule="evenodd" clip-rule="evenodd" d="M31.5809 41.5083C36.0023 41.5083 39.1603 43.424 42.3184 46.2977V35.4417C40.1078 33.8452 37.5813 32.8873 34.739 32.8873L31.5809 41.5083Z" fill="url(#paint0_linear_75_127)"/>
<path fill-rule="evenodd" clip-rule="evenodd" d="M31.5809 41.5082L31.8967 43.7433C36.0023 44.0626 39.1603 45.3398 41.0552 47.8941H43.5817C45.4765 45.3398 48.6346 44.0626 52.7401 43.7433L53.0559 41.5082C48.6346 41.5082 45.4765 43.424 42.3184 46.2977C39.1603 43.424 36.0023 41.5082 31.5809 41.5082Z" fill="#D89F07"/>
<path fill-rule="evenodd" clip-rule="evenodd" d="M37.2655 35.4417C37.2655 35.4417 36.9497 35.4417 36.9497 35.7609C37.2655 35.7609 37.2655 35.7609 37.2655 35.7609C37.2655 35.7609 37.2655 35.7609 37.5813 35.7609C37.8971 36.0802 37.8971 36.0802 38.2129 36.0802C38.2129 36.0802 38.2129 36.0802 38.5287 36.0802C38.5287 36.0802 38.5287 36.3995 38.8445 36.3995C39.1603 36.3995 39.1603 36.3995 39.4761 36.3995C39.7919 36.3995 39.7919 36.3995 39.7919 36.7188C40.1077 36.7188 40.1077 37.0381 40.4235 36.7188C40.1077 36.7188 40.1077 36.7188 39.7919 36.7188C39.7919 36.3995 39.7919 36.3995 39.4761 36.3995C39.1603 36.3995 39.1603 36.3995 39.1603 36.0802C38.8445 36.0802 38.8445 36.0802 38.5287 36.0802C38.5287 36.0802 38.5287 36.0802 38.5287 35.7609C38.5287 35.7609 38.2129 35.7609 37.8971 35.7609C37.5813 35.4417 37.5813 35.4417 37.2655 35.7609C37.2655 35.7609 37.2655 35.7609 37.2655 35.4417ZM36.318 38.3153C36.318 37.996 36.318 38.3153 36.0022 38.3153H36.318H36.6338C36.9497 38.3153 36.9497 38.3153 36.9497 38.6346H37.2655C37.5813 38.6346 37.5813 38.6346 37.5813 38.6346C37.5813 38.9539 37.8971 38.9539 38.2129 38.9539C38.2129 39.2732 38.5287 39.2732 38.8445 39.2732H39.1603C39.1603 39.5925 39.4761 39.5925 39.7919 39.5925C39.4761 39.5925 39.1603 39.2732 39.1603 39.2732C39.1603 38.9539 38.8445 38.9539 38.8445 38.9539C38.5287 38.9539 38.5287 38.9539 38.2129 38.9539C38.2129 38.6346 38.2129 38.6346 37.8971 38.6346H37.5813C37.5813 38.3153 37.5813 38.3153 37.2655 38.3153C36.9497 38.3153 36.9497 38.3153 36.9497 38.3153H36.6338C36.6338 38.3153 36.6338 38.3153 36.318 38.3153ZM36.0022 39.5925C35.6864 39.2732 35.6864 39.2732 35.3706 39.5925C35.6864 39.5925 35.6864 39.5925 35.6864 39.5925C36.0022 39.5925 36.0022 39.5925 36.318 39.5925C36.6338 39.9118 36.6338 39.9118 36.9497 39.9118C37.2655 39.9118 37.2655 39.9118 37.2655 39.9118C37.2655 40.2311 37.5813 40.2311 37.8971 40.2311C38.2129 40.5504 38.2129 40.5504 38.5287 40.2311C38.8445 40.2311 38.8445 40.5504 39.1603 40.5504C39.1603 40.8697 39.4761 40.8697 39.7919 40.5504C39.4761 40.5504 39.1603 40.5504 39.1603 40.5504C38.8445 40.2311 38.8445 40.2311 38.5287 40.2311C38.2129 40.2311 38.2129 40.2311 37.8971 39.9118C37.8971 39.9118 37.8971 39.9118 37.5813 39.9118C37.2655 39.9118 37.2655 39.9118 37.2655 39.5925C37.2655 39.5925 36.9497 39.5925 36.6338 39.5925C36.318 39.2732 36.318 39.5925 36.0022 39.5925ZM36.9497 36.7188C36.9497 36.7188 36.6338 36.7188 36.6338 37.0381C36.6338 36.7188 36.9497 37.0381 36.9497 37.0381C36.9497 37.0381 36.9497 37.0381 37.2655 37.0381C37.2655 37.3574 37.5813 37.3574 37.8971 37.3574C37.8971 37.0381 37.8971 37.3574 38.2129 37.3574C38.2129 37.3574 38.2129 37.6767 38.5287 37.6767C38.8445 37.6767 38.8445 37.6767 39.1603 37.6767C39.4761 37.6767 39.4761 37.6767 39.4761 37.996C39.7919 37.996 39.7919 37.996 40.1077 37.996C39.7919 37.996 39.4761 37.996 39.4761 37.6767C39.4761 37.6767 39.4761 37.6767 39.1603 37.6767C38.8445 37.6767 38.8445 37.6767 38.5287 37.3574C38.5287 37.3574 38.5287 37.3574 38.2129 37.3574C38.2129 37.3574 38.2129 37.3574 38.2129 37.0381C37.8971 37.0381 37.8971 37.0381 37.5813 37.0381C37.5813 37.0381 37.5813 37.0381 37.2655 37.0381C37.2655 36.7188 37.2655 36.7188 36.9497 37.0381C36.9497 37.0381 36.9497 37.0381 36.9497 36.7188Z" fill="black"/>
<path fill-rule="evenodd" clip-rule="evenodd" d="M47.3713 35.4417C47.3713 35.4417 47.6872 35.4417 47.6872 35.7609H47.3713C47.3713 35.7609 47.3713 35.7609 47.0555 35.7609C47.0555 36.0802 46.7397 36.0802 46.4239 36.0802C46.1081 36.0802 46.1081 36.3995 45.7923 36.3995C45.4765 36.3995 45.4765 36.3995 45.1607 36.3995C44.8449 36.3995 44.8449 36.3995 44.8449 36.7188C44.8449 36.7188 44.5291 37.0381 44.2133 36.7188C44.5291 36.7188 44.8449 36.7188 44.8449 36.7188C44.8449 36.3995 44.8449 36.3995 45.1607 36.3995C45.4765 36.3995 45.4765 36.3995 45.7923 36.0802C45.7923 36.0802 45.7923 36.0802 46.1081 36.0802C46.1081 36.0802 46.1081 36.0802 46.1081 35.7609C46.4239 35.7609 46.4239 35.7609 46.7397 35.7609C46.7397 35.7609 46.7397 35.7609 47.0555 35.7609C47.0555 35.4417 47.0555 35.4417 47.3713 35.7609C47.3713 35.7609 47.3713 35.7609 47.3713 35.4417ZM48.3188 38.3153C48.3188 37.996 48.6346 38.3153 48.6346 38.3153C48.6346 38.3153 48.6346 38.3153 48.3188 38.3153H48.003C47.6872 38.3153 47.6872 38.3153 47.6872 38.6346H47.3713C47.0555 38.6346 47.0555 38.6346 47.0555 38.6346C47.0555 38.9539 46.7397 38.9539 46.7397 38.9539C46.4239 38.9539 46.4239 38.9539 46.4239 38.9539C46.4239 39.2732 46.1081 39.2732 45.7923 39.2732H45.4765C45.4765 39.5925 45.1607 39.5925 44.8449 39.5925C45.1607 39.5925 45.4765 39.2732 45.4765 39.2732C45.4765 38.9539 45.7923 38.9539 45.7923 38.9539C46.1081 38.9539 46.4239 38.9539 46.4239 38.9539C46.4239 38.6346 46.7397 38.6346 46.7397 38.6346C47.0555 38.6346 47.0555 38.6346 47.0555 38.6346C47.0555 38.3153 47.3713 38.3153 47.3713 38.3153C47.6872 38.3153 47.6872 38.3153 47.6872 38.3153H48.003C48.003 38.3153 48.003 38.3153 48.3188 38.3153ZM48.6346 39.5925C48.9504 39.2732 48.9504 39.2732 49.2662 39.5925H48.9504C48.6346 39.5925 48.6346 39.5925 48.3188 39.5925C48.003 39.9118 48.003 39.9118 47.6872 39.9118H47.3713C47.3713 40.2311 47.0555 40.2311 46.7397 40.2311C46.4239 40.5504 46.4239 40.5504 46.1081 40.2311C45.7923 40.2311 45.7923 40.5504 45.4765 40.5504C45.4765 40.8697 45.1607 40.8697 44.8449 40.5504C45.1607 40.5504 45.4765 40.5504 45.4765 40.5504C45.7923 40.2311 45.7923 40.2311 46.1081 40.2311C46.4239 40.2311 46.4239 40.2311 46.7397 39.9118H47.0555C47.3713 39.9118 47.3713 39.9118 47.3713 39.5925C47.3713 39.5925 47.6872 39.5925 48.003 39.5925C48.3188 39.2732 48.3188 39.5925 48.6346 39.5925ZM47.6872 36.7188C48.003 36.7188 48.003 36.7188 48.003 37.0381C48.003 36.7188 48.003 37.0381 47.6872 37.0381C47.6872 37.0381 47.6872 37.0381 47.3713 37.0381C47.3713 37.3574 47.0555 37.3574 46.7397 37.3574C46.7397 37.0381 46.7397 37.3574 46.7397 37.3574C46.4239 37.3574 46.4239 37.6767 46.1081 37.6767C45.7923 37.6767 45.7923 37.6767 45.4765 37.6767C45.4765 37.6767 45.1607 37.6767 45.1607 37.996C45.1607 37.996 44.8449 37.996 44.5291 37.996C44.8449 37.996 45.1607 37.996 45.1607 37.6767H45.4765C45.7923 37.6767 45.7923 37.6767 46.1081 37.3574C46.1081 37.3574 46.1081 37.3574 46.4239 37.3574C46.4239 37.3574 46.4239 37.3574 46.7397 37.0381C46.7397 37.0381 46.7397 37.0381 47.0555 37.0381C47.0555 37.0381 47.0555 37.0381 47.3713 37.0381C47.3713 36.7188 47.3713 36.7188 47.6872 37.0381C47.6872 37.0381 47.6872 37.0381 47.6872 36.7188Z" fill="black"/>
<path d="M35.0548 40.5504C36.0023 40.5504 37.2655 40.8697 38.2129 41.1889C39.1604 41.5082 39.792 42.1468 40.7394 42.7854L41.0552 36.3995C40.4236 36.0802 39.792 35.4416 39.1604 35.1224C38.2129 34.8031 37.5813 34.8031 36.9497 34.4838H36.6339C36.6339 34.4838 36.3181 34.4838 36.3181 34.8031L34.739 39.5925C34.739 39.9118 34.739 39.9118 34.739 39.9118C34.739 40.2311 34.739 40.2311 34.739 40.5504C34.739 40.5504 34.739 40.5504 35.0548 40.5504ZM38.2129 41.5082C37.2655 41.1889 36.0023 40.8697 35.0548 40.8697C35.0548 40.8697 35.0548 40.8697 34.739 40.8697C34.739 40.5504 34.739 40.5504 34.739 40.5504C34.4232 40.2311 34.4232 40.2311 34.4232 39.9118C34.4232 39.9118 34.739 39.9118 34.739 39.5925L36.0023 34.8031C36.3181 34.4838 36.6339 34.4838 36.9497 34.4838C37.5813 34.4838 38.5287 34.8031 39.1604 35.1224C39.792 35.4416 40.4236 35.7609 41.0552 36.3995L40.7394 42.7854C39.792 42.1468 38.8445 41.8275 38.2129 41.5082Z" fill="#B78E00"/>
<path d="M49.582 40.5504C48.6346 40.5504 47.3714 40.8697 46.4239 41.1889C45.7923 41.5082 44.8449 42.1468 43.8975 42.7854L43.5817 36.3995C44.2133 36.0802 44.8449 35.4416 45.4765 35.1224C46.4239 34.8031 47.0556 34.8031 47.6872 34.4838H48.003C48.003 34.4838 48.3188 34.4838 48.3188 34.8031L49.8978 39.5925C49.8978 39.9118 49.8978 39.9118 49.8978 39.9118C49.8978 40.2311 49.8978 40.2311 49.8978 40.5504C49.582 40.5504 49.582 40.5504 49.582 40.5504ZM46.7398 41.5082C47.6872 41.1889 48.6346 40.8697 49.582 40.8697H49.8978C49.8978 40.5504 49.8978 40.5504 50.2137 40.5504C50.2137 40.2311 50.2137 40.2311 50.2137 39.9118C50.2137 39.9118 50.2137 39.9118 49.8978 39.5925L48.6346 34.8031C48.3188 34.4838 48.003 34.4838 48.003 34.4838H47.6872C47.0556 34.4838 46.4239 34.8031 45.4765 35.1224C44.8449 35.4416 44.2133 35.7609 43.5817 36.3995L43.8975 42.7854C44.8449 42.1468 45.7923 41.8275 46.7398 41.5082Z" fill="#B78E00"/>
<path fill-rule="evenodd" clip-rule="evenodd" d="M26.528 60.3466L25.5806 59.708L27.7912 56.8344L28.7387 57.473L26.528 60.3466ZM31.8967 41.8276V43.424C34.1074 43.7433 35.6865 44.0626 37.2655 44.7012C38.8445 45.6591 40.1078 46.617 41.0552 47.8942H43.5817C44.5291 46.617 45.7923 45.6591 47.3714 44.7012C48.9504 44.0626 50.5295 43.7433 52.7401 43.424V41.8276C50.8453 41.8276 48.9504 42.1469 47.3714 43.1047C45.4765 43.7433 43.8975 45.0205 42.3184 46.2977C40.7394 45.0205 39.1604 43.7433 37.2655 43.1047C35.6865 42.1469 33.7916 41.8276 31.8967 41.8276ZM36.3181 47.8942L31.2651 45.0205L31.8967 43.7433L31.5809 41.5083L34.739 32.8873C37.5813 32.8873 40.1078 33.8452 42.3184 35.4417C44.5291 33.8452 47.0556 32.8873 49.8979 32.8873L53.056 41.5083L52.7401 43.7433L53.3718 45.0205L48.3188 47.8942L49.8979 53.3222H49.5821L48.6346 54.5993L42.3184 51.0871L36.0023 54.5993L35.0548 53.3222H34.739L36.3181 47.8942ZM42.3184 35.4417H42.0026C41.0552 34.8031 39.792 34.1645 38.8445 33.8452C37.5813 33.2066 36.3181 32.8873 35.0548 32.8873L31.8967 41.5083C36.0023 41.8276 39.1604 43.424 42.3184 45.9784V35.761V35.4417ZM52.7401 41.5083L49.8979 32.8873C48.3188 32.8873 47.0556 33.2066 46.1082 33.8452C44.8449 34.1645 43.5817 34.8031 42.6343 35.4417L42.3184 35.761V45.9784C45.4765 43.424 48.6346 41.8276 52.7401 41.5083ZM52.7401 44.0626L44.2133 48.852V48.5327L52.7401 44.0626V43.7433L42.3184 49.1713L31.8967 43.7433V44.0626L40.4236 48.5327L31.8967 44.0626L31.2651 45.0205L40.4236 50.1292H40.7394H40.4236L35.0548 53.3222L36.0023 54.28L42.3184 50.7678L48.6346 54.28L49.5821 53.3222L44.2133 50.1292H43.8975H44.2133L53.3718 45.0205L52.7401 44.0626ZM43.8975 48.852L42.9501 49.4906V49.1713L43.8975 48.5327V48.852ZM40.7394 48.5327L41.6868 49.1713V49.4906L40.7394 48.852V48.5327ZM28.7387 61.9431L27.7912 61.3045L28.4228 60.0273L27.4754 61.3045L26.528 60.6659L28.7387 57.473L29.6861 58.1116L28.7387 59.0695L30.0019 58.1116L30.6335 58.7502L29.3703 59.708L28.7387 61.9431ZM31.2651 63.2203L30.3177 62.901L31.2651 61.3045L30.9493 60.9852L30.3177 62.5817L29.3703 62.2624L30.9493 58.7502L31.8967 59.3888L31.2651 60.6659H31.5809L32.2126 59.3888L33.16 60.0273L31.2651 63.2203ZM33.7916 64.1782L31.8967 63.5396L33.16 60.0273L34.1074 60.3466L33.16 63.5396L33.7916 63.8589V64.1782ZM36.6339 65.1361L35.6865 64.8168V63.8589L35.3706 63.5396L34.739 64.4975H33.7916L35.3706 60.9852L36.6339 61.3045V65.1361ZM35.6865 63.2203L36.0023 61.9431L35.3706 63.2203H35.6865ZM37.2655 63.5396L37.8971 63.8589V64.4975C37.8971 64.8168 37.8971 64.8168 38.2129 64.8168C38.2129 64.8168 38.2129 64.8168 38.2129 64.4975V64.1782C38.5287 64.1782 38.2129 63.8589 38.2129 63.5396C37.5813 63.2203 37.5813 62.901 37.2655 62.901C37.2655 62.5817 37.2655 62.5817 37.2655 62.5817V61.9431C37.2655 61.6238 37.8971 61.3045 38.5287 61.3045C39.1604 61.6238 39.4762 61.9431 39.4762 62.2624V62.901H38.5287V62.2624C38.5287 61.9431 38.5287 61.9431 38.5287 61.9431C38.5287 61.9431 38.2129 61.9431 38.2129 62.2624C38.2129 62.5817 38.2129 62.5817 38.5287 62.901C38.8445 63.2203 39.1604 63.5396 39.1604 63.8589C39.4762 63.8589 39.4762 64.1782 39.4762 64.1782V64.8168C39.1604 65.1361 38.8445 65.4553 37.8971 65.1361C37.2655 65.1361 36.9497 64.8168 36.9497 64.4975L37.2655 63.5396ZM40.7394 65.4553V61.6238H42.0026C42.3184 61.6238 42.6343 61.9431 42.6343 61.9431C42.9501 61.9431 42.9501 62.2624 42.9501 62.5817V62.901C42.9501 63.2203 42.6343 63.5396 42.3184 63.5396C42.9501 63.5396 42.9501 63.8589 42.9501 64.1782V64.8168C42.9501 65.1361 42.9501 65.1361 42.6343 65.4553C42.3184 65.4553 42.3184 65.4553 42.0026 65.4553H40.7394ZM42.0026 63.2203V62.5817C42.0026 62.2624 42.0026 62.2624 41.6868 62.2624V63.2203C42.0026 63.2203 42.0026 63.2203 42.0026 63.2203ZM42.0026 64.8168V63.8589C42.0026 63.8589 42.0026 63.8589 41.6868 63.5396V65.1361C42.0026 65.1361 42.0026 65.1361 42.0026 64.8168ZM45.1607 65.4553H43.2659L42.9501 61.6238H44.8449V61.9431L43.8975 62.2624L44.2133 63.2203H44.8449L45.1607 63.5396H44.2133V64.8168H45.1607V65.4553ZM48.3188 64.8168H47.3714C47.0556 64.8168 47.0556 64.4975 47.0556 64.1782V63.8589C46.7398 63.5396 46.7398 63.5396 46.7398 63.2203C46.7398 63.2203 46.7398 63.2203 46.424 63.2203L46.7398 65.1361H45.7923L45.1607 61.6238L46.424 61.3045C46.7398 61.3045 46.7398 61.3045 47.0556 61.3045C47.3714 61.3045 47.3714 61.6238 47.3714 61.6238L47.6872 62.2624C47.6872 62.5817 47.3714 62.5817 47.0556 62.901C47.3714 62.901 47.6872 62.901 47.6872 63.2203L48.003 63.8589C48.003 64.4975 48.003 64.8168 48.3188 64.8168ZM46.7398 62.5817L46.424 61.9431C46.424 61.9431 46.424 61.6238 46.1082 61.9431L46.424 62.901L46.7398 62.5817ZM51.1611 63.8589L50.2137 64.1782L49.8979 63.2203H49.2662L49.5821 64.4975L48.3188 64.8168L48.003 60.6659L49.2662 60.3466L51.1611 63.8589ZM49.5821 62.5817L48.9504 61.6238L49.2662 62.901L49.5821 62.5817ZM54.635 62.2624L53.6876 62.5817L53.056 60.6659L53.3718 62.901L52.7401 63.2203L51.1611 61.3045L52.1085 63.2203L51.4769 63.8589L49.8979 60.3466L50.8453 59.708L52.1085 61.3045L51.7927 59.3888L53.056 58.7502L54.635 62.2624ZM57.1615 60.3466L56.5299 60.9852L55.5824 60.3466H55.2666L55.5824 61.3045L54.9508 61.9431L53.6876 58.4309L54.635 57.7923L57.1615 60.3466ZM55.2666 59.708L54.635 59.0695L55.2666 60.0273V59.708ZM59.0563 59.0695L57.4773 60.3466L55.2666 57.1537L55.8982 56.5151L58.1089 59.0695L58.7405 58.7502L59.0563 59.0695Z" fill="black"/>
</g>
<defs>
<linearGradient id="paint0_linear_75_127" x1="31.634" y1="38.3166" x2="42.4385" y2="40.588" gradientUnits="userSpaceOnUse">
<stop stop-color="#ECA400"/>
<stop offset="0.231373" stop-color="#EDA804"/>
<stop offset="0.34902" stop-color="#F3C627"/>
<stop offset="0.419608" stop-color="#ECA400"/>
<stop offset="0.478431" stop-color="#F5CD2E"/>
<stop offset="0.74902" stop-color="#F4C728"/>
<stop offset="0.901961" stop-color="#EDA704"/>
<stop offset="1" stop-color="#ECA400"/>
</linearGradient>
<clipPath id="clip0_75_127">
<rect width="84.6368" height="76.6306" fill="white"/>
</clipPath>
</defs>
</svg>
