<svg width="46" height="86" viewBox="0 0 46 86" fill="none" xmlns="http://www.w3.org/2000/svg">
<path d="M3 49V46H0V49H3ZM43 83V86H46V83H43ZM3 83H0V86H3V83ZM0 23C0 24.6569 1.34315 26 3 26C4.65685 26 6 24.6569 6 23H0ZM17.1213 60.8787C15.9497 59.7071 14.0503 59.7071 12.8787 60.8787C11.7071 62.0503 11.7071 63.9497 12.8787 65.1213L17.1213 60.8787ZM21 69L18.8787 71.1213C20.0503 72.2929 21.9497 72.2929 23.1213 71.1213L21 69ZM33.1213 61.1213C34.2929 59.9497 34.2929 58.0503 33.1213 56.8787C31.9497 55.7071 30.0503 55.7071 28.8787 56.8787L33.1213 61.1213ZM3 49C3 52 3.00103 52 3.00222 52C3.00282 52 3.00416 52 3.00536 52C3.00775 52 3.01076 52 3.01437 52C3.0216 52 3.03125 51.9999 3.04328 51.9999C3.06734 51.9998 3.10094 51.9995 3.14378 51.9991C3.22944 51.9983 3.35207 51.9967 3.50921 51.9935C3.82342 51.9873 4.27599 51.9749 4.8472 51.9504C5.98891 51.9014 7.60879 51.8041 9.54851 51.6101C13.4133 51.2236 18.6171 50.447 23.862 48.8735C29.0756 47.3094 34.5458 44.8949 38.7569 41.1049C43.0539 37.2376 46 31.9586 46 25H40C40 30.0414 37.9461 33.7624 34.7431 36.6451C31.4542 39.6051 26.9244 41.6906 22.138 43.1265C17.3829 44.553 12.5867 45.2764 8.95149 45.6399C7.14121 45.8209 5.63609 45.9111 4.5903 45.9559C4.06776 45.9783 3.66096 45.9893 3.38923 45.9947C3.2534 45.9975 3.15142 45.9988 3.08572 45.9994C3.05287 45.9997 3.0291 45.9999 3.01471 45.9999C3.00751 46 3.00266 46 3.0002 46C2.99897 46 2.99833 46 2.9983 46C2.99828 46 2.99871 46 2.9987 46C2.99927 46 3 46 3 49ZM40 25V83H46V25H40ZM43 80H3V86H43V80ZM6 83V49H0V83H6ZM46 25V23H40V25H46ZM46 23C46 10.2971 35.7029 0 23 0V6C32.3891 6 40 13.6109 40 23H46ZM23 0C10.2971 0 0 10.2971 0 23H6C6 13.6109 13.6109 6 23 6V0ZM12.8787 65.1213L18.8787 71.1213L23.1213 66.8787L17.1213 60.8787L12.8787 65.1213ZM23.1213 71.1213L33.1213 61.1213L28.8787 56.8787L18.8787 66.8787L23.1213 71.1213Z" fill="#065D40"/>
</svg>
