<svg width="45" height="45" viewBox="0 0 45 45" fill="none" xmlns="http://www.w3.org/2000/svg">
<path d="M2 11.9581V10.4581C1.58292 10.4581 1.18468 10.6318 0.900861 10.9374C0.617046 11.243 0.473288 11.653 0.504098 12.0689L2 11.9581ZM43 11.9581L44.4959 12.0689C44.5267 11.653 44.383 11.243 44.0991 10.9374C43.8153 10.6318 43.4171 10.4581 43 10.4581V11.9581ZM40.7222 42.7081V44.2081C41.5077 44.2081 42.1601 43.6022 42.2181 42.8189L40.7222 42.7081ZM4.27778 42.7081L2.78188 42.8189C2.8399 43.6022 3.49234 44.2081 4.27778 44.2081V42.7081ZM11.8889 16.5137C11.8889 17.3421 12.5605 18.0137 13.3889 18.0137C14.2173 18.0137 14.8889 17.3421 14.8889 16.5137H11.8889ZM13.3889 1.70813V0.20813C12.5605 0.20813 11.8889 0.879703 11.8889 1.70813L13.3889 1.70813ZM31.6111 1.70813H33.1111C33.1111 0.879703 32.4395 0.20813 31.6111 0.20813V1.70813ZM30.1111 16.5137C30.1111 17.3421 30.7827 18.0137 31.6111 18.0137C32.4395 18.0137 33.1111 17.3421 33.1111 16.5137H30.1111ZM13.3889 32.097C12.5605 32.097 11.8889 32.7686 11.8889 33.597C11.8889 34.4254 12.5605 35.097 13.3889 35.097V32.097ZM31.6111 35.097C32.4395 35.097 33.1111 34.4254 33.1111 33.597C33.1111 32.7686 32.4395 32.097 31.6111 32.097V35.097ZM2 13.4581H43V10.4581H2V13.4581ZM41.5041 11.8473L39.2263 42.5973L42.2181 42.8189L44.4959 12.0689L41.5041 11.8473ZM40.7222 41.2081H4.27778V44.2081H40.7222V41.2081ZM5.77368 42.5973L3.4959 11.8473L0.504098 12.0689L2.78188 42.8189L5.77368 42.5973ZM14.8889 16.5137V1.70813H11.8889V16.5137H14.8889ZM13.3889 3.20813H31.6111V0.20813H13.3889V3.20813ZM30.1111 1.70813V16.5137H33.1111V1.70813H30.1111ZM13.3889 35.097H31.6111V32.097H13.3889V35.097Z" fill="black"/>
</svg>
