<svg width="33" height="50" viewBox="0 0 33 50" fill="none" xmlns="http://www.w3.org/2000/svg">
<path d="M3.3 21.4286H29.7V5.35714C29.7 4.88354 29.5262 4.42934 29.2167 4.09445C28.9073 3.75957 28.4876 3.57143 28.05 3.57143H4.95C4.51239 3.57143 4.09271 3.75957 3.78327 4.09445C3.47384 4.42934 3.3 4.88354 3.3 5.35714V21.4286ZM3.3 25V44.6429C3.3 45.1165 3.47384 45.5707 3.78327 45.9055C4.09271 46.2404 4.51239 46.4286 4.95 46.4286H28.05C28.4876 46.4286 28.9073 46.2404 29.2167 45.9055C29.5262 45.5707 29.7 45.1165 29.7 44.6429V25H3.3ZM4.95 0H28.05C29.3628 0 30.6219 0.564412 31.5502 1.56907C32.4785 2.57373 33 3.93634 33 5.35714V44.6429C33 46.0637 32.4785 47.4263 31.5502 48.4309C30.6219 49.4356 29.3628 50 28.05 50H4.95C3.63718 50 2.37813 49.4356 1.44982 48.4309C0.521517 47.4263 0 46.0637 0 44.6429V5.35714C0 3.93634 0.521517 2.57373 1.44982 1.56907C2.37813 0.564412 3.63718 0 4.95 0ZM6.6 14.2919H9.9V17.8571H6.6V14.2919ZM6.6 28.5714H9.9V32.2919H6.6V28.5714Z" fill="black"/>
</svg>
