<svg width="61" height="50" viewBox="0 0 61 50" fill="none" xmlns="http://www.w3.org/2000/svg">
<path d="M48.6036 46.2578C51.2033 44.7663 53.4815 42.7742 55.3062 40.3969C57.131 38.0195 58.4661 35.3041 59.2343 32.4079L60.3575 28.2205L56.987 27.3183L55.8638 31.5057C55.2067 33.9559 54.0733 36.2528 52.5284 38.2655C50.9834 40.2781 49.0573 41.967 46.8598 43.2357C44.6623 44.5044 42.2366 45.3281 39.7212 45.6597C37.2057 45.9914 34.6498 45.8244 32.1993 45.1685L25.6262 43.4103L24.7223 46.7803L31.2939 48.5393C34.1861 49.3222 37.2053 49.5236 40.1765 49.132C43.1478 48.7404 46.0121 47.7635 48.6036 46.2578Z" fill="black"/>
<path d="M40.2883 24.8742C40.77 25.7085 41.8371 25.9942 42.6719 25.5122C43.5066 25.0303 43.7928 23.9633 43.3111 23.129C42.8295 22.2947 41.7623 22.009 40.9275 22.491C40.0928 22.9729 39.8066 24.0399 40.2883 24.8742Z" fill="black"/>
<path d="M41.6262 34.1727C44.2259 32.6812 46.5041 30.6891 48.3289 28.3118C50.1537 25.9344 51.4888 23.219 52.2569 20.3227L53.3801 16.1353L50.0097 15.2332L48.8865 19.4206C48.2293 21.8707 47.0959 24.1677 45.551 26.1804C44.0061 28.193 42.0799 29.8819 39.8824 31.1506C37.685 32.4193 35.2593 33.243 32.7438 33.5746C30.2283 33.9062 27.6724 33.7393 25.2219 33.0833L18.6488 31.3252L17.7449 34.6951L24.3165 36.4541C27.2088 37.237 30.2279 37.4385 33.1992 37.0469C36.1704 36.6553 39.0347 35.6784 41.6262 34.1727Z" fill="black"/>
<path d="M47.2656 36.9594C47.7473 37.7937 48.8145 38.0793 49.6492 37.5974C50.484 37.1154 50.7702 36.0484 50.2885 35.2141C49.8068 34.3798 48.7396 34.0942 47.9049 34.5761C47.0701 35.058 46.7839 36.1251 47.2656 36.9594Z" fill="black"/>
<path d="M33.3109 12.7891C33.7926 13.6234 34.8598 13.909 35.6945 13.4271C36.5293 12.9452 36.8155 11.8781 36.3338 11.0438C35.8521 10.2095 34.7849 9.92388 33.9502 10.4058C33.1154 10.8878 32.8292 11.9548 33.3109 12.7891Z" fill="black"/>
<path d="M15.5348 23.886L17.3391 24.369C20.2324 25.1438 23.2502 25.3412 26.2203 24.9498C29.1904 24.5584 32.0545 23.5859 34.6491 22.0879C37.2437 20.5899 39.5179 18.5957 41.3419 16.2193C43.1659 13.8428 44.5039 11.1306 45.2796 8.23761L46.6674 3.06353L41.4926 1.6784C38.5995 0.903811 35.5819 0.706609 32.612 1.09806C29.6422 1.48951 26.7783 2.46194 24.1838 3.95983C21.5894 5.45771 19.3153 7.45171 17.4914 9.82796C15.6675 12.2042 14.3294 14.9161 13.5537 17.8089L13.0683 19.6139L2.83544 16.8749C2.50213 16.7858 2.1498 16.7974 1.82302 16.9084C1.49624 17.0194 1.20966 17.2247 0.999516 17.4985C0.789374 17.7722 0.665102 18.1021 0.642412 18.4463C0.619722 18.7906 0.699632 19.1338 0.872041 19.4325L9.59374 34.539C9.76627 34.8377 10.0235 35.0785 10.333 35.2309C10.6425 35.3834 10.9903 35.4407 11.3324 35.3956C11.6746 35.3505 11.9957 35.205 12.2552 34.9775C12.5147 34.7499 12.7009 34.4507 12.7904 34.1174L15.5348 23.886ZM25.9272 6.98114C28.1222 5.70582 30.5483 4.87833 33.0649 4.54657C35.5816 4.2148 38.1388 4.38535 40.5887 5.04835L42.3931 5.53132L41.9091 7.33546C41.252 9.78561 40.1186 12.0826 38.5736 14.0952C37.0287 16.1079 35.1025 17.7967 32.9051 19.0654C30.7076 20.3342 28.2819 21.1578 25.7664 21.4895C23.251 21.8211 20.6951 21.6541 18.2446 20.9982L16.4387 20.5161L16.9241 18.7111C17.5748 16.2583 18.7055 13.9586 20.2509 11.9451C21.7963 9.93171 23.7256 8.24449 25.9272 6.98114ZM6.00033 21.334L12.1643 22.9839L10.5112 29.147L6.00033 21.334Z" fill="black"/>
</svg>
