<svg width="64" height="64" viewBox="0 0 64 64" fill="none" xmlns="http://www.w3.org/2000/svg">
<path d="M57.1419 36.5714C56.7032 36.5709 56.2738 36.4439 55.9053 36.2057L45.713 29.6457L35.5229 36.2103C35.1356 36.4608 34.6816 36.5883 34.2205 36.576C33.7595 36.5638 33.3129 36.4123 32.9395 36.1415C32.5661 35.8708 32.2833 35.4934 32.1284 35.0589C31.9735 34.6245 31.9536 34.1534 32.0714 33.7074L35.1572 21.9771L28.1352 15.2914C27.8237 14.9951 27.602 14.6169 27.4957 14.2002C27.3894 13.7836 27.4028 13.3454 27.5343 12.9361C27.6658 12.5267 27.9102 12.1627 28.2393 11.8859C28.5683 11.6092 28.9688 11.4308 29.3947 11.3714L39.395 9.97258L43.6603 1.27772C43.8467 0.898306 44.1347 0.578015 44.4922 0.35245C44.8498 0.126885 45.2628 0.00488208 45.6856 3.9136e-06C46.1074 -0.000770063 46.5216 0.113269 46.8836 0.329899C47.2456 0.546528 47.5418 0.857581 47.7405 1.22972L52.2961 9.97258L62.0381 11.3737C62.463 11.4345 62.8621 11.6137 63.1898 11.8908C63.5176 12.1678 63.7607 12.5315 63.8914 12.9403C64.0221 13.3491 64.0351 13.7864 63.9289 14.2022C63.8226 14.618 63.6015 14.9954 63.2907 15.2914L56.2688 21.9749L59.3546 33.7051C59.4434 34.0435 59.4535 34.3977 59.3839 34.7405C59.3143 35.0833 59.1669 35.4055 58.9532 35.6824C58.7394 35.9593 58.465 36.1834 58.151 36.3376C57.837 36.4917 57.4917 36.5717 57.1419 36.5714ZM45.713 24.64C46.1515 24.6399 46.5808 24.7661 46.9496 25.0034L53.4344 29.1794L51.5029 21.8309C51.3985 21.4353 51.4022 21.0191 51.5136 20.6255C51.625 20.2319 51.8399 19.8754 52.1361 19.5931L56.7259 15.2274L50.4857 14.3291C50.1271 14.2775 49.7858 14.1414 49.4901 13.9319C49.1944 13.7225 48.9528 13.4458 48.7851 13.1246L45.7747 7.34858L42.9632 13.0743C42.7989 13.4093 42.5551 13.6991 42.2531 13.9182C41.9511 14.1374 41.6 14.2792 41.2305 14.3314L34.7183 15.2434L39.2899 19.5931C39.5864 19.8751 39.8018 20.2315 39.9136 20.6251C40.0254 21.0187 40.0294 21.4351 39.9254 21.8309L37.9916 29.1794L44.4764 25.0034C44.8449 24.7653 45.2742 24.6406 45.713 24.64Z" fill="#065D40"/>
<path d="M31.5799 64C24.5911 64.0009 17.7995 61.6832 12.2693 57.4101C6.73907 53.137 2.78281 47.1501 1.02045 40.3873C-0.741915 33.6246 -0.210793 26.4683 2.53059 20.0398C5.27197 13.6113 10.0687 8.27394 16.1691 4.864C16.6034 4.62052 17.1054 4.52552 17.5987 4.59346C18.092 4.66139 18.5496 4.88854 18.902 5.24037C19.2543 5.59219 19.4821 6.04945 19.5508 6.54262C19.6195 7.03579 19.5252 7.53789 19.2824 7.97257C16.4073 13.1042 15.2871 19.0344 16.0922 24.8612C16.8972 30.6879 19.5836 36.0922 23.7425 40.252C27.9014 44.4118 33.3052 47.0994 39.1319 47.9059C44.9587 48.7124 50.8894 47.5937 56.0219 44.72C56.4563 44.4765 56.9582 44.3815 57.4515 44.4495C57.9448 44.5174 58.4024 44.7445 58.7548 45.0964C59.1071 45.4482 59.335 45.9054 59.4036 46.3986C59.4723 46.8918 59.378 47.3939 59.1352 47.8286C56.3904 52.7267 52.3915 56.8061 47.549 59.6481C42.7064 62.49 37.1948 63.9921 31.5799 64ZM12.1735 13.6526C7.23574 18.7399 4.49754 25.5655 4.55048 32.6548C4.60341 39.7441 7.44323 46.5281 12.4564 51.5411C17.4697 56.5541 24.2538 59.3939 31.3434 59.4468C38.4329 59.4997 45.2588 56.7616 50.3463 51.824C45.076 53.1161 39.5615 53.0277 34.3353 51.5674C29.1091 50.1071 24.3477 47.3241 20.5106 43.4872C16.6736 39.6503 13.8905 34.889 12.4302 29.663C10.9698 24.437 10.8814 18.9227 12.1735 13.6526Z" fill="#065D40"/>
</svg>
