<svg width="99" height="71" viewBox="0 0 99 71" fill="none" xmlns="http://www.w3.org/2000/svg">
<path d="M68.3615 67.7467C68.3615 68.6095 68.0219 69.437 67.4173 70.0471C66.8126 70.6572 65.9926 71 65.1375 71H7.10541C6.25035 71 5.43032 70.6572 4.8257 70.0471C4.22108 69.437 3.88141 68.6095 3.88141 67.7467C3.88141 66.8838 4.22108 66.0563 4.8257 65.4462C5.43032 64.8361 6.25035 64.4933 7.10541 64.4933H65.1375C65.9926 64.4933 66.8126 64.8361 67.4173 65.4462C68.0219 66.0563 68.3615 66.8838 68.3615 67.7467ZM98.9493 17.8893C98.8594 18.3532 98.6728 18.7925 98.4018 19.1782C98.1309 19.5638 97.7817 19.8868 97.3776 20.1259L36.3633 55.9126C33.3754 57.6914 29.8945 58.4394 26.4477 58.0431C23.0009 57.6469 19.7759 56.128 17.261 53.7166L2.0679 39.3613C1.28006 38.6294 0.686538 37.71 0.34158 36.687C-0.00337863 35.6641 -0.0887736 34.5702 0.0931987 33.5053C0.283361 32.4365 0.732391 31.4317 1.40034 30.5803C2.06828 29.7289 2.93443 29.0573 3.92171 28.6253L10.6518 25.6973C11.4811 25.3706 12.4018 25.3706 13.231 25.6973L23.024 29.9673L29.0287 26.4699L19.9611 18.2553C19.1663 17.5194 18.5658 16.5952 18.214 15.5663C17.8622 14.5374 17.7702 13.4361 17.9462 12.3623C18.1222 11.2884 18.5608 10.2758 19.2222 9.41596C19.8836 8.55615 20.747 7.87631 21.7343 7.43793L28.3839 4.55059C29.1181 4.26059 29.9284 4.23191 30.681 4.46926L53.4908 12.1553L70.0945 2.27326C73.4103 0.283861 77.3256 -0.432956 81.1227 0.254198C84.9198 0.941352 88.3443 2.98644 90.7684 6.01459L98.2642 15.2459C98.5615 15.6101 98.7768 16.0351 98.8951 16.4915C99.0134 16.948 99.0319 17.4249 98.9493 17.8893ZM90.8893 16.4253L85.7712 10.1219C84.3092 8.31284 82.2531 7.09243 79.9758 6.68207C77.6985 6.27171 75.3509 6.69859 73.3588 7.88526L55.5058 18.4993C55.1085 18.736 54.6654 18.884 54.2066 18.9331C53.7477 18.9822 53.2837 18.9313 52.846 18.7839L29.8347 11.0573L24.3136 13.4159L36.6857 24.6806C37.0596 25.029 37.3486 25.4598 37.5304 25.9395C37.7121 26.4192 37.7816 26.9347 37.7335 27.4459C37.6728 27.9516 37.4954 28.4358 37.2154 28.8596C36.9354 29.2834 36.5607 29.635 36.1215 29.886L24.8375 36.3926C24.4002 36.6448 23.9121 36.794 23.4097 36.8292C22.9073 36.8644 22.4035 36.7847 21.9358 36.596L11.9414 32.2446L6.46061 34.6033L21.6537 48.9993C23.1677 50.4468 25.1079 51.3569 27.1805 51.5917C29.253 51.8265 31.3449 51.3733 33.1393 50.3006L90.8893 16.4253Z" fill="#065D40"/>
</svg>
